<svg width="40" height="52" xmlns="http://www.w3.org/2000/svg" xmlns:xlink="http://www.w3.org/1999/xlink" xml:space="preserve" overflow="hidden"><defs><clipPath id="clip0"><rect x="19" y="11" width="40" height="52"/></clipPath></defs><g clip-path="url(#clip0)" transform="translate(-19 -11)"><path d="M29.2621 0.282612C28.5698 0.512127 27.9176 0.848454 27.3292 1.27941 26.0521 2.12607 24.8704 3.18645 24.0179 3.84234 23.3071 4.33149 22.6356 4.87541 22.0096 5.46913 21.3144 6.12708 20.7161 6.88036 20.2327 7.70647 19.7802 8.43826 19.2566 9.1236 18.6695 9.75247 18.2983 10.1751 17.9618 10.627 17.6632 11.1037 17.4277 11.5459 17.4784 11.8779 17.8022 12.9154 18.126 13.9528 17.9788 13.5336 18.1808 14.2849 18.4055 14.9004 18.3962 15.5769 18.1549 16.186 17.8746 17.1192 17.9959 16.8566 17.7068 17.2117 17.4383 17.5408 17.3141 17.5119 16.7241 17.489 16.1342 17.466 15.808 17.5478 15.3429 17.5007 14.8452 17.4241 14.3639 17.2649 13.9186 17.0297 13.4867 16.7828 13.0107 16.6228 12.5174 16.5587 12.0661 16.4388 11.587 16.4805 11.1632 16.6765 10.7971 16.9262 10.3916 17.1126 9.96384 17.2281 9.441 17.3235 9.09716 17.1846 8.13863 16.9926 7.18011 16.8007 5.43675 16.1978 4.42288 15.9328 3.40901 15.6679 1.94001 15.264 1.32474 15.1663 0.904688 15.0664 0.473413 15.0216 0.041803 15.0332-0.125998 15.0921 0.154259 15.3511 0.40861 15.4636 0.85894 15.663 1.33128 15.8085 1.81578 15.8969 2.64004 16.088 3.45077 16.3333 4.24271 16.6311 5.96517 17.2297 7.65325 17.9232 9.29911 18.7083 9.99274 19.219 10.63 19.802 11.2003 20.4476 12.0004 21.2365 12.5291 21.6122 13.3151 22.4123 14.1012 23.2124 14.6475 23.551 14.8006 24.1462 14.9926 24.9018 15.0251 25.689 14.896 26.4578 14.7341 27.2032 15.035 27.4722 14.3414 28.177 13.8261 28.744 13.2687 29.2714 12.674 29.7543 12.0074 30.2122 11.3951 30.7443 10.8488 31.3405 10.6645 31.6355 10.5645 31.9754 10.5597 32.3231 10.545 32.8607 10.6774 35.4984 10.5797 36.484 10.4702 37.5843 10.5188 38.6946 10.7239 39.7812 10.9553 41.1306 11.056 42.5549 11.3045 43.7713 11.5529 44.9877 12.472 48.6428 12.807 49.6002 13.142 50.5575 13.0149 50.8254 13.5035 51.4254 13.9922 52.0253 14.1765 52.2979 14.6222 51.4889 14.7317 51.2893 15.7262 50.6335 15.8298 50.2437 15.9334 49.8539 16.2284 49.218 16.1648 49.1026 16.1012 48.9872 16.1766 49.1174 16.3727 48.8453 16.5687 48.5733 16.667 47.9263 16.829 47.7991 17.0323 47.6569 17.1639 47.4335 17.1899 47.1868 17.2305 46.8688 17.8487 45.0778 17.791 44.572 17.8183 43.8907 17.8917 43.2121 18.0106 42.5407 18.0195 42.2723 18.6494 39.946 18.7013 39.7641 18.8019 39.499 18.8421 39.2148 18.819 38.9321 18.7701 38.5883 18.8278 38.5418 19.134 38.4729 19.4402 38.404 19.8794 37.7793 20.5323 36.8867 21.4485 35.6385 23.3785 30.9719 23.7423 30.2124 23.9476 29.8461 24.1263 29.4656 24.277 29.0737 24.4072 28.7585 24.6163 28.482 24.884 28.2706 25.1053 28.0398 25.3001 27.7848 25.4645 27.5105 25.8054 26.9618 25.6411 26.7533 25.7854 26.7851 25.7942 26.7851 26.5278 26.6868 26.496 26.8946 26.459 27.3591 26.461 27.8259 26.5019 28.29 26.5626 28.9266 26.6688 29.558 26.8199 30.1794 26.9211 30.4856 27.0106 30.7947 27.1172 31.0867 27.2281 31.4432 27.4511 31.7544 27.7531 31.974 27.8773 31.8514 27.9278 31.6725 27.8861 31.503 27.8137 30.9566 27.3863 30.0093 27.2244 29.1108 27.0813 28.5324 26.982 27.9442 26.927 27.3509 26.9388 26.9264 26.9936 26.8393 27.0395 26.8422 27.1349 26.8511 27.3368 26.8593 27.3574 27.0012 27.4092 27.3362 27.3574 27.3421 27.4499 28.0963 27.5136 28.6873 27.6344 29.2708 27.8108 29.8385 28.0345 30.6554 28.3885 31.4307 28.8594 32.1347 29.056 32.4179 29.2409 32.5333 29.3074 31.9469 29.1383 31.3464 28.9376 30.7552 28.7063 30.1759 28.4896 29.4652 28.452 29.3551 28.2412 28.8035 28.0201 28.2399 27.898 27.6423 27.8803 27.0371 28.0015 26.9906 28.0569 27.0836 28.1405 27.1007 28.3689 27.1443 28.3053 27.8579 28.4902 28.4066 28.7293 29.2719 29.0566 30.1104 29.467 30.9089 30.14 32.2437 30.6169 32.6423 30.9925 32.7583 31.3682 32.8742 31.8362 32.9867 31.8245 32.3538 31.8127 31.7208 32.6275 32.3767 32.9543 32.2413 33.2811 32.1059 33.6608 31.5507 33.821 31.4494 33.9811 31.3481 33.9387 30.9407 35.3206 30.3455 35.7369 30.1688 35.5084 29.9922 35.9447 29.7567 36.381 29.5212 36.3462 28.8146 36.832 28.5921 37.0893 28.4743 37.1788 28.1705 37.2653 28.0168 37.3377 27.8867 37.5138 27.8867 37.7422 27.8808 38.1291 27.9197 38.5181 27.9352 38.9068 27.9274 39.1176 27.8608 39.4096 27.8549 39.19 27.6918 38.8846 27.4896 38.5681 27.3044 38.2421 27.1372 37.7799 26.877 37.6351 26.8511 37.6268 26.7009 37.6151 26.4843 37.6616 26.4654 37.6616 26.2299 37.6616 26.0421 37.8235 25.5823 37.6875 25.3744 37.5515 25.1666 37.7946 24.99 37.7252 24.7733 37.4796 24.0191 37.777 23.8948 37.4072 23.3749 37.2365 23.1353 37.4072 21.8924 37.1758 21.5892 37.0893 21.4797 36.1908 21.4391 36.514 20.9969 36.8002 20.6095 36.6671 19.8123 36.4016 19.7605 35.9268 19.6705 35.4361 19.7196 34.9885 19.9018 34.2602 20.1243 34.0265 20.255 33.4577 20.3869 32.6703 20.6235 31.919 20.9666 31.2245 21.4067 30.3031 21.9324 30.3413 22.0826 29.9881 22.2245 29.9763 22.2304 29.6271 22.2045 29.8927 21.989 30.1582 21.7735 30.3231 21.6357 30.6846 21.3796 30.8812 21.2383 31.699 20.6978 31.9705 20.5159 32.5409 20.1485 33.1367 19.8221 33.7533 19.5391 34.4898 19.1576 34.5911 19.1952 34.8131 18.9032 34.9432 18.7325 35.3071 18.4204 34.5734 18.4204 33.9884 18.42 33.415 18.5831 32.9178 18.8914 32.408 19.1616 31.9163 19.4647 31.4459 19.7987 31.0214 20.0878 30.5627 20.4835 30.2295 20.7319 29.889 21.0074 29.5676 21.3056 29.2674 21.6245 28.9265 21.853 28.9554 21.5121 28.9554 21.5121 29.6372 20.7867 29.8715 20.6878 30.5533 19.9689 31.362 19.2115 32.271 18.5689 33.2546 18.0589 33.8669 17.741 33.0697 17.5879 32.8731 17.6632 32.2761 17.8128 31.7139 18.0767 31.2174 18.4404 30.6495 18.86 30.1284 19.3395 29.6631 19.8706 29.2824 20.2234 28.9369 20.6125 28.6315 21.0322 28.2194 21.5839 27.8832 21.1017 27.441 21.0728 27.0624 21.0469 26.9412 21.1135 27.2414 19.0645 27.5417 17.0156 27.8538 16.3049 27.9262 14.7941 27.9491 14.3408 28.0822 12.8147 28.0534 12.5291 27.9732 12.2731 27.9362 12.0054 27.9438 11.7372 28.0272 11.2916 28.1343 10.8508 28.2647 10.4166 28.4237 9.92851 29.089 9.39979 29.4117 8.68561 30.5892 6.0791 30.989 5.90306 31.2321 4.51885 31.4894 3.06281 31.7232 2.08014 31.4606 2.08603 31.2321 2.09192 31.6961 1.18756 31.4488 1.23643 31.2522 1.27705 31.3311 0.326181 31.0956 0.0400367 30.9425-0.144839 29.2609 0.279668 29.2609 0.279668" fill="#231F20" transform="matrix(1.01033 0 0 1 19.1665 11.0065)"/></g></svg>