<?xml version="1.0" encoding="utf-8"?>
<!-- Generator: Adobe Illustrator 27.8.0, SVG Export Plug-In . SVG Version: 6.00 Build 0)  -->
<svg version="1.1" id="Layer_1" xmlns="http://www.w3.org/2000/svg" xmlns:xlink="http://www.w3.org/1999/xlink" x="0px" y="0px"
	 viewBox="0 0 305.8 84.66" style="enable-background:new 0 0 305.8 84.66;" xml:space="preserve">
<style type="text/css">
	.st0{fill:#FFFFFF;}
	.st1{fill:#0092D7;}
	.st2{fill:#00428B;}
</style>
<g>
	<rect x="11.46" y="9.35" class="st0" width="68.08" height="67.93"/>
	<path class="st1" d="M78.47,76.23H12.5V22.71c1.73-0.69,4.47-1.19,6.9-1.19c20.38,0,22.76,19.55,44.78,19.55
		c7.63,0,12.35-2.22,14.3-3.07V76.23z"/>
	<path class="st2" d="M12.5,21.96c1.96-0.84,7.15-3.33,14.79-3.33c22.47,0,23.6,19.82,44.28,19.82c2.43,0,4.9-0.58,6.9-1.18V10.4
		H12.5V21.96z"/>
	<path class="st0" d="M78.47,49.74c-1.94,0.85-6.67,3.08-14.3,3.08c-22.03,0-24.4-19.55-44.78-19.55c-2.43,0-5.16,0.52-6.9,1.19
		v-0.75c1.96-0.84,7.15-3.34,14.79-3.34c22.47,0,23.61,19.82,44.26,19.82c2.43,0,4.93-0.58,6.92-1.17V49.74z"/>
</g>
<g>
	<polygon class="st2" points="90.86,10.4 99.97,10.4 106.27,30.04 112.16,10.4 121.61,10.4 121.61,40.09 115.06,40.09 115.15,16.47 
		107.87,40.09 103.37,40.09 96.1,16.43 96.29,40.09 90.86,40.09 	"/>
	<path class="st2" d="M147.23,33.37l-6.21-0.51c-0.6,2.09-2.23,3.29-4.37,3.29c-3.04,0-4.8-2.09-4.8-5.94h15.5v-0.9
		c0-7.4-4.11-11.79-10.66-11.79c-6.88,0-11.67,4.87-11.67,11.63c0,6.89,4.48,11.54,11.39,11.54
		C141.82,40.68,145.77,38.02,147.23,33.37 M131.96,26.62c0.18-3.17,1.83-4.93,4.36-4.93c2.71,0,4.32,1.72,4.36,4.93H131.96z"/>
	<rect x="150.77" y="10.4" class="st2" width="6.59" height="29.69"/>
	<path class="st2" d="M161.33,40.17h3.49l1.23-3.47c1.79,2.57,4.19,3.89,6.96,3.89c5.35,0,9.19-4.62,9.19-11.85
		c0-6.87-3.55-11.24-8.37-11.24c-2.74,0-5.14,1.41-6.11,3.63V10.4h-6.39V40.17z M167.71,31.75v-5.61c0-2.53,1.66-4.2,3.62-4.2
		c2.82,0,4.06,2.4,4.06,7.36c0,4.53-1.41,6.89-4,6.89C169.12,36.19,167.71,34.6,167.71,31.75"/>
	<path class="st2" d="M195.76,40.68c6.63,0,11.13-4.57,11.13-11.59c0-7.01-4.5-11.59-11.13-11.59c-6.58,0-11.07,4.58-11.07,11.59
		C184.68,36.06,189.18,40.68,195.76,40.68 M195.76,36.22c-2.77,0-4.23-2.4-4.23-7.13c0-4.75,1.46-7.2,4.23-7.2
		c2.74,0,4.29,2.5,4.29,7.2C200.05,33.8,198.5,36.22,195.76,36.22"/>
	<path class="st2" d="M229.93,40.09h-5.9v-3.52c-1.41,2.7-3.63,4.11-6.58,4.11c-4.92,0-7.14-2.69-7.14-8.34V18.1h6.37v13.82
		c0,2.68,1.01,4.06,2.99,4.06c2.27,0,3.89-1.81,3.89-4.92V18.1h6.37V40.09z"/>
	<path class="st2" d="M234.09,18.1h5.69v4.61c0.98-3.5,2.9-5.2,6.06-5.2c0.25,0,0.64,0.04,1.12,0.08v5.94
		c-0.48-0.04-0.9-0.09-1.34-0.09c-3.24,0-5.18,2.18-5.18,5.85v10.8h-6.35V18.1z"/>
	<path class="st2" d="M249.94,18.1h5.91v3.51c1.41-2.7,3.67-4.1,6.58-4.1c4.88,0,7.15,2.69,7.15,8.33v14.25h-6.38V26.27
		c0-2.7-0.98-4.1-2.99-4.1c-2.26,0-3.94,1.88-3.94,4.96v12.97h-6.33V18.1z"/>
	<path class="st2" d="M294.77,33.37l-6.19-0.51c-0.61,2.09-2.23,3.29-4.38,3.29c-3.02,0-4.78-2.09-4.78-5.94h15.48v-0.9
		c0-7.4-4.1-11.79-10.64-11.79c-6.89,0-11.68,4.87-11.68,11.63c0,6.89,4.48,11.54,11.39,11.54
		C289.37,40.68,293.31,38.02,294.77,33.37 M279.5,26.62c0.18-3.17,1.85-4.93,4.38-4.93c2.72,0,4.3,1.72,4.35,4.93H279.5z"/>
	<polygon class="st2" points="91.01,46.55 97.64,46.55 102.56,67.08 107.57,46.55 113.15,46.55 118.24,66.87 123.21,46.55 
		128.73,46.55 120.96,76.23 114.8,76.23 109.87,56.68 105.08,76.23 98.67,76.23 	"/>
	<path class="st2" d="M143.35,76.23h6.37c-0.46-1.03-0.63-2.44-0.63-4.23v-9.77c0-6.01-2.7-8.59-9.64-8.59
		c-6.19,0-9.88,2.22-10.9,6.54l6,0.64c0.34-2,1.89-3.09,4.57-3.09c2.44,0,3.68,1.17,3.68,3.39v0.93
		c-9.88,0.09-14.85,2.82-14.85,8.02c0,4.05,2.92,6.7,7.7,6.7c3.25,0,5.79-1.45,7.28-4.1C142.95,74.02,143.09,75.21,143.35,76.23
		 M142.8,65.45v1.97c0,2.99-2.05,5.13-4.77,5.13c-2.12,0-3.32-1.06-3.32-2.86C134.71,67.08,137.45,65.54,142.8,65.45"/>
	<path class="st2" d="M154.81,58.53h-3.55v-4.28h3.73l0.34-6.11l5.85-0.39v6.5h4.57v4.28h-4.57v9.89c0,2.47,0.48,3.46,2.66,3.46
		c0.68,0,1.49-0.1,2.39-0.3v4.79c-1.46,0.29-2.87,0.47-4.2,0.47c-5.17,0-7.22-2.36-7.22-7.74V58.53z"/>
	<path class="st2" d="M190.36,69.52L184.15,69c-0.6,2.09-2.23,3.3-4.36,3.3c-3.04,0-4.79-2.1-4.79-5.94h15.49v-0.91
		c0-7.39-4.11-11.8-10.65-11.8c-6.89,0-11.69,4.88-11.69,11.64c0,6.87,4.5,11.54,11.39,11.54C184.97,76.83,188.9,74.18,190.36,69.52
		 M175.09,62.76c0.17-3.16,1.83-4.91,4.36-4.91c2.73,0,4.32,1.71,4.37,4.91H175.09z"/>
	<path class="st2" d="M194.17,54.25h5.68v4.62c0.98-3.51,2.9-5.22,6.07-5.22c0.26,0,0.63,0.05,1.11,0.08v5.94
		c-0.48-0.04-0.9-0.08-1.32-0.08c-3.25,0-5.18,2.18-5.18,5.86v10.78h-6.37V54.25z"/>
</g>
</svg>
