<?xml version="1.0" encoding="utf-8"?>
<!-- Generator: Adobe Illustrator 27.8.0, SVG Export Plug-In . SVG Version: 6.00 Build 0)  -->
<svg version="1.1" id="Layer_1" xmlns="http://www.w3.org/2000/svg" xmlns:xlink="http://www.w3.org/1999/xlink" x="0px" y="0px"
	 viewBox="0 0 400 401" style="enable-background:new 0 0 400 401;" xml:space="preserve">
<style type="text/css">
	.st0{fill:#000F46;}
	.st1{clip-path:url(#SVGID_00000043447185415518897210000013732054710456210350_);}
	.st2{fill:#FFFFFF;}
</style>
<rect y="1" class="st0" width="400" height="400"/>
<g>
	<defs>
		<rect id="SVGID_1_" y="1" width="400" height="400"/>
	</defs>
	<clipPath id="SVGID_00000019666916261960949990000012512556162355991176_">
		<use xlink:href="#SVGID_1_"  style="overflow:visible;"/>
	</clipPath>
	<g style="clip-path:url(#SVGID_00000019666916261960949990000012512556162355991176_);">
		<path class="st2" d="M281.3,81.8L255,47.7c-3.8,2.4-9.9,4.8-16,4.8c-6.1,0-10.5-0.6-15.6-1.6c-6.4-1.3-13.6-2.7-25-2.7
			c-11.4,0-18.6,1.4-25,2.7c-5.1,1-9.5,1.6-15.6,1.6c-6.1,0-12.1-2.4-16-4.8l-26.3,34.1c3.2,3.1,9.2,10.2,9.2,20.2
			c0,6.8-1,13-2.1,20.1c-1.6,9.6-3.3,20.5-3.3,36.7c0,27.8,17.7,51.8,46.2,62.5c20.6,7.8,29.3,13.5,32.8,16.6
			c3.6-3.2,12.2-8.9,32.8-16.6c28.5-10.8,46.2-34.7,46.2-62.5c0-16.2-1.8-27.1-3.3-36.7c-1.2-7.1-2.1-13.3-2.1-20.1
			C272.1,91.9,278,84.9,281.3,81.8z"/>
		<path class="st0" d="M255,47.7l26.2,34.1c-3.2,3.1-9.2,10.2-9.2,20.2c0,6.8,1,13,2.1,20.1c1.6,9.6,3.3,20.5,3.3,36.7
			c0,27.8-17.7,51.8-46.2,62.5c-20.6,7.8-29.3,13.5-32.8,16.6c-3.6-3.2-12.2-8.9-32.8-16.6c-28.5-10.8-46.2-34.7-46.2-62.5
			c0-16.2,1.8-27.1,3.3-36.7c1.2-7.1,2.1-13.3,2.1-20.1c0-10-5.9-17-9.2-20.2l26.2-34.1c3.8,2.4,9.9,4.8,16,4.8
			c6.1,0,10.5-0.6,15.6-1.6c6.4-1.3,13.6-2.7,25-2.7c11.4,0,18.6,1.4,25,2.7c5.1,1,9.5,1.6,15.6,1.6C245.2,52.5,251.2,50.1,255,47.7
			z M255.5,45l-1.6,1c-3.4,2.1-9.1,4.4-14.9,4.4c-6.2,0-10.4-0.6-15.2-1.5c-6.5-1.3-13.8-2.7-25.4-2.7c-11.6,0-19,1.5-25.4,2.7
			c-4.8,1-9,1.5-15.2,1.5c-5.7,0-11.4-2.3-14.9-4.4l-1.6-1l-1.1,1.5l-26.2,34.1L113,82l1.3,1.3c3.2,3.1,8.5,9.6,8.5,18.7
			c0,6.6-1,12.7-2.1,19.8c-1.6,9.7-3.4,20.7-3.4,37c0,28.7,18.2,53.4,47.6,64.4c21,7.9,29.2,13.6,32.2,16.3l1.4,1.2l1.4-1.2
			c3-2.7,11.2-8.4,32.2-16.3c29.4-11.1,47.6-35.7,47.6-64.4c0-16.4-1.8-27.4-3.4-37c-1.1-7.1-2.1-13.2-2.1-19.8
			c0-9.1,5.4-15.6,8.5-18.7L284,82l-1.1-1.5l-26.2-34.1L255.5,45z"/>
		<path class="st0" d="M266.8,101.6c0-9,3.9-15.9,7.5-20.5l-20.8-27c-3.9,2.1-8.8,3.3-14.5,3.3c-6.6,0-11.5-0.6-16.6-1.7
			c-6.1-1.2-13.1-2.6-24-2.6c-10.9,0-17.9,1.4-24,2.6c-5.2,1-10,1.7-16.6,1.7c-5.7,0-10.5-1.2-14.5-3.3l-20.8,27
			c3.6,4.5,7.5,11.5,7.5,20.5c0,7.2-1,13.6-2.2,21c-1.5,9.4-3.2,20.1-3.2,35.9c0,25.5,16.4,47.6,42.8,57.5
			c16.4,6.2,25.7,11.2,31,14.9c5.3-3.7,14.6-8.7,31-14.9c26.4-9.9,42.8-32,42.8-57.5c0-15.8-1.7-26.5-3.2-35.9
			C267.8,115.2,266.8,108.8,266.8,101.6z"/>
		<path class="st0" d="M138.5,62.4c-10.3-2.4-15.1-3.8-15.1-3.8c0,6.2,3.2,9.3,3.2,9.3s0.7,2.3,2.6,5.7"/>
		<path class="st0" d="M266.9,94.5c4.6-2.6,5.9-3.7,7.5-8.4c0,0,3.7-3.2,5.2-5.8c4.2-4.5,5.5-9.9,5.5-10c3.3-3.9,4.3-9.2,4.3-9.2
			c3.3-5.2,3.7-9.8,3.7-9.8s-7.6,2.5-23.8,7.7c-2.4,0.8-11,3.8-11,3.8"/>
		<path class="st2" d="M144.1,116.1l1.6,4.1l4.3-1.2l-2.1,3.8l3.6,2.8l-4.4,0.4l0.2,4.4l-3.2-2.9l-3.4,2.9l0.3-4.2l-4.2-0.9l3.7-2.6
			l-2-3.8l3.9,1.4L144.1,116.1z M167.6,126.6l-3.9-1.3l2,3.8l-3.7,2.6l4.3,0.9l-0.4,4.3l3.4-2.9l3.3,2.9l-0.3-4.4l4.4-0.4l-3.6-2.8
			l2-3.8l-4.3,1.1l-1.6-4L167.6,126.6z M137.8,152.2l-3.9-1.3l2,3.7l-3.6,2.6l4.2,0.9l-0.4,4.3l3.4-2.9l3.2,2.9l-0.2-4.5l4.4-0.4
			l-3.6-2.8l2-3.7l-4.3,1.2l-1.6-4L137.8,152.2z M167.7,153.7l-3.8,0.1l3.1,2.4l-1.1,3.8l3.2-2.3l3.2,2.3l-1.2-3.8l3.1-2.4h-3.9
			l-1.2-3.7L167.7,153.7z M167.4,180l-3.9-1.4l2,3.8l-3.7,2.6l4.2,0.9l-0.3,4.3l3.4-2.9l3.2,3l-0.3-4.4l4.4-0.5l-3.6-2.8l2-3.7
			l-4.2,1.2l-1.6-4.1L167.4,180z M205.6,190.2c2.4-1.2,3-2.3,3.8-3.8l0.1-0.1c0.2-0.3,0.3-0.7,0.5-1c0.2-0.6,0.5-1.3,1.1-2.1
			c0,0,0,0,0,0c-12.8-14.6-21.9-31.7-25-37.6c0,0-0.1,0-0.1,0c-0.2,5.2-0.1,15.9,3.5,23c2,4,2.4,4.4,7.8,11.1l0.9,1.1l0.6,0.7
			c0,0,0,0.1,0,0.1c-0.7-0.3-1.8-1-1.8-1c-1.6-0.9-5.4-3.9-8.7-8.7c0,0-0.1,0-0.1,0c-0.2,7.1,3.5,13.7,5.9,16.3
			c2.3,2.5,5.7,2.9,7.5,2.9C203,191,204.6,190.7,205.6,190.2z M228.9,194.7c3.2-0.2,7.2-1.4,8.6-3.5c0.4-0.5,1.1-1.3,2.8-2.2
			c1-0.5,2-0.9,2.8-1.1c2.5-0.9,4.2-1.4,4.2-6c-17.8-10.6-25-21.3-24.5-21.4c0,0,3.1,3.1,7.6,6.8c3.9,3.2,12.2,10.1,19.4,13.3
			c0.5,0.2,0,7-4.1,8.8c-0.4,0.2-0.9,0.4-1.5,0.6c-2.1,0.8-5.3,2-5,4.1c0.1,0.2,0.8,0.5,2.2,0.5c3.2,0,7.3-1.3,8.9-4.1
			c0.6-1.1,1.1-2.1,1.5-3c1.3-2.8,2.1-4.5,5.8-5.3c-1.5-1.6-9.6-10.3-13.4-14.3c-4-4.2-6.8-9-7.1-9.6c0,0-0.6-1-1.6-1.7
			c-4-3.1-8.4-4-12.2-4.7c-4.2-0.8-6.3-1.5-7.8-2.9c-2.4-2.2-2-5.9-1.9-7.2c0-0.1,0-0.2,0-0.2c-0.2,0.2-0.6,0.9-0.8,1.1
			c-0.6,1-1.6,2.5-3.4,2.5c-0.2,0-0.4,0-0.6-0.1c-1.4-0.2-2.4-0.9-3.1-3.6c-0.2-0.7-0.6-0.9-0.8-1c-0.2,0-0.3,0.1-0.4,0.1
			c-0.6,0.7-0.5,3.1-0.2,4.2c0.1,0.5-0.1,0.8-0.2,0.9c-0.2,0.2-0.4,0.3-0.8,0.3c-0.4,0-0.7-0.2-0.9-0.4c-0.5-0.7-0.9-1.4-1.3-2.1
			c-0.3,1.1-0.9,2.3-2.1,2.3c-0.9,0-1.8-0.8-2.7-1.5c-1-0.9-1.8-1.6-2.5-1.6c-0.2,0-0.4,0.1-0.7,0.2c-0.4,0.2-0.8,0.4-1.2,0.4
			c-0.5,0-0.9-0.2-1.3-0.6c-1.2-1.6,0.3-3.6,0.9-4.2c-0.4-0.3-1.3-0.5-2.4-0.5c-0.8,0-2.8,0.2-3.6,1.6c-0.3,0.9,0.2,1.9,0.7,2.8
			c1.6,3.4,13.9,25.5,26.6,39.5c0.8,0.9,0.9,1.8,0.3,2.6c-1.7,2.4-2.3,4.3-1.7,5.6c0.7,1.7,3,2.1,3,2.1c0.6,0.1,1.2,0.2,1.7,0.2
			c2.5,0,3.3-1.4,4.2-2.9c1.2-2.2,2.4-2.6,3.2-2.6c0.4,0,0.8,0.1,0.9,0.2l0,0c0.3,0.1,0.7,0.6,0.8,1.1c0.1,0.4,0.1,1.1-0.4,1.9l0,0
			c-0.5,0.6-1.5,1-2.3,1.4c-0.8,0.4-1.7,0.8-1.7,1.2c0.1,0.5,3.3,2.2,7.5,2.2C228.6,194.7,228.8,194.7,228.9,194.7z M207.1,154.4
			c2.2,3.2,8.2,11.9,18.4,23.5c0,0,0.7,1-0.3,2.9l-0.5,0.7l-0.3-0.7c0,0-0.3-0.7-1-1.5c-12.5-14.3-17.8-26.6-17.8-26.6
			C205.6,152.7,205.9,152.7,207.1,154.4z M237.8,155.5c0.5-0.4,0.8-1.4,0.8-3c0-0.9,0-1.8,0.5-2.5c0.5-0.7,1.2-1.1,2.1-1.2
			c-0.9-0.5-2-1.1-3.2-1.8c-3.1-1.7-7.6-4.1-13.1-8.2c1.3,1.8,3,3.5,4.9,5.2l0.7,0.6c0,0.1-0.8-0.2-0.8-0.2c-0.1,0-1.5-0.5-2.4-1.1
			c0,0-0.1,0-0.1-0.1c-2.7-1.5-5.2-4-7.2-7c0,0-2.6-4.3-5.8-11.5c-0.9-2.1-6-10.8-8-12.6c-3.1-0.6-7-0.7-8.1-0.7c-0.6,0-1.1,0-1.5,0
			c-2.3,0.1-4.1,0.5-5,0.9c-4,11.1-5.3,18.9-5.6,23.5l0,0.4c1-0.5,2.2-0.7,3.3-0.7c2.1,0,4.1,0.8,4.5,2c0.3,1-0.1,1.6-0.6,2.1
			c-0.3,0.3-0.6,0.6-0.7,1.1c0.5-0.2,0.9-0.4,1.4-0.4c1.6,0,2.9,1.2,3.9,2.1l0,0c0.8,0.7,1.1,0.9,1.2,1c0.1-0.2,0.5-1.1,0.7-4.2
			c0,0,0,0,0,0c-1.6-9.6,3.4-16.4,3.4-16.4s-3.2,11-0.8,17.7c0.4-1.7,1.4-2.2,2.2-2.3c0.1,0,0.2,0,0.4,0c1,0,2.3,0.8,2.8,2.4
			c0.6,2,1,2.1,1.6,2.2c0.1,0,0.2,0,0.2,0c0.6,0,1-0.5,1.7-1.6c0.6-0.9,1.3-2.1,2.6-2.1c0.1,0,0.3,0,0.5,0.1
			c0.6,0.1,1.5,0.8,1.4,2.1c-0.9,6.6,2.1,7.2,8,8.4c3.2,0.6,7.3,1.4,11.1,3.8c-0.4-0.9-1.2-1.7-1.7-2.3c-0.2-0.2-0.4-0.4-0.5-0.6
			l-0.3-0.4l0.5,0c0,0,3.9,0.4,4.8,5.3c0,0,0,0,0,0C237.6,155.7,237.7,155.6,237.8,155.5z M241.9,150.7c-0.2,0-0.4,0-0.6,0.1
			c-0.8,0.2-0.8,0.8-0.9,1.9c0,0.8,0,1.8-0.6,2.7c2.3-0.5,3.8-1.7,3.8-3.1c0-0.5-0.2-1-0.6-1.3C242.7,150.8,242.4,150.7,241.9,150.7
			z M214.5,120.7c0,0.1,0.1,0.1,0.2,0c1.7-2,0.5-6.2,0.2-7.9c2.4,1.4,5.6,2.4,7.4,2.6c0.2-2-0.3-4.1-1.2-6.5c2.6,1.9,6.6,3.1,7.9,3
			c0.3-2.1-1.3-6.1-1.4-6.7c1,0.4,3.4,1.7,5.3,2c0.5-1.3,0.9-3.4,0.7-5.4c0,0-3.7,0.7-5.5,0.7c-0.5,0-1,0-1.4-0.1
			c-1-0.1-2.9-0.4-4.8-0.8c-1.1-0.2-2.1-0.4-3.1-0.6c-0.4-0.1-0.8-0.1-1.1-0.2c-1-0.2-1.9-0.3-3.3-0.4c-0.5,0-1.5-0.1-1.9-0.1
			c0,0,0,0,0,0c-0.6,4-3,7.6-4.3,9.5c-0.2,0.3-0.4,0.5-0.5,0.7v0C210.3,114,213.8,119.7,214.5,120.7z M170.5,95.5
			c-0.9-0.8-1.2-1.8-1-2.7c-1.7-0.2-4.6-0.8-6.9-2c-1,0.2-4.3,0.9-8.4,0.9c-0.9,0-1.9,0-2.9-0.1c0.1,0.1,0.2,0.1,0.2,0.2
			c0.9,0.6,1.8,1.1,2.6,1.3c0.4-0.1,1.2-0.1,3.3-0.3c0.3,0,0.6,0,1,0c2.2,0,4.6,0.8,7.4,2.4c0.2,0.1,2.5,1,3.7,1.6
			C169.6,96.5,170,96.1,170.5,95.5z M266.7,92.4c1.9-0.5,4-2.4,5.2-4.6c-2.4,1.4-4.3,2-6.6,2c-0.4,0-0.9,0-1.4-0.1
			c-0.3,0.5-0.7,1.6-2.5,2.5C263.1,93,265.7,92.7,266.7,92.4z M236.6,92.9c1-0.1,1.8-0.2,2.6-0.3c4.9-0.6,5.6-0.6,6.4-1.1
			c0.1-0.1,0.3-0.2,0.5-0.4c0.6-0.6,1.5-1.5,2.5-1.6c0.1,0,0.3,0,0.4-0.1c0.1,0,0.3,0,0.4-0.1c0.4-0.1,0.8-0.1,1.1-0.4
			c0.9-0.6,1.6-1.2,2.4-1.2c0,0,0,0,0,0c0.6,0,0.9,0.6,1,0.8c0.2,0.3,0.1,1.1,0.1,1.6c0.2,0,0.5-0.1,0.7-0.2c0.1,0,0.1-0.1,0.2-0.1
			c0.3-0.1,0.8-0.3,1.1-0.4c0.3-0.1,0.5-0.1,0.7-0.1c0.5,0,0.7,0.2,1,0.5c0.4,0.5,0.7,1.1,0.8,1.6c1.3-0.4,2.5-1.3,3.1-1.9
			c-2-0.6-4.6-1.8-6.1-3.7c-0.7-0.8-0.9-1.6-1-2.2c-7.1,2.7-19.3,5.4-23.2,6.2c0.1,0.5,0.1,0.9,0,1.4c-0.1,0.4-0.3,0.7-0.6,1.1
			c0.4,0.4,1.4,1.3,1.4,1.3S236,93,236.6,92.9z M173.1,90.8c-0.2-0.3-0.3-0.7-0.3-1.1c-4.7-2.8-10-3.7-13-3.9
			c0.9,1.2,1.9,2.2,3.3,3.1c3.1,1.9,7.9,2.2,8.6,2.2C171.9,90.9,172.5,90.8,173.1,90.8z M160.3,89.2c-1.1-1-2-2.1-2.8-3.5
			c-1.5,0.2-2.9,0.3-4.4,0.3c-4.5,0-8.9-0.9-13.5-2.7c2.2,2.3,6.2,5.4,9.5,6.1c1.6,0.2,3.3,0.4,5,0.4
			C156.6,89.7,158.8,89.4,160.3,89.2z M255.1,81c0.1-0.1,0.4-0.6,1-1c0.3-0.2,0.6-0.5,1-0.6l0.3-0.1c1.3-0.6,2.6-1.1,3.4-1.7
			l0.2-0.2c0.6-0.4,1.1-0.8,1.5-1.6c-2.1-0.1-4-0.6-5.2-1.1c-13,2.8-25.4,7.8-29.4,9.4c0.9,0.8,1.1,1.9,0.6,3.3
			c0.6,0,1.1,0.2,1.6,0.5C232.2,87.4,247.8,84.1,255.1,81z M271.8,85.5c1.6-1.1,3.6-2.7,5.4-5c-4.5,1.9-8,2.3-12.8,2.3
			c-0.1,0-0.2,0-0.3,0c-3.4,0-5.9-0.5-7-0.9c-0.1,0.1-0.2,0.2-0.2,0.3c-0.1,0.1-0.6,1,0.4,2.2c1.6,2,4.7,3.1,6.4,3.3
			c0.5,0.1,1.1,0.1,1.7,0.1C266.6,87.8,268.9,87.6,271.8,85.5z M156.5,83.8c-0.5-1.1-0.9-2.2-1.2-3.3l-0.1-0.1
			c-0.9-2.7-3.2-3.4-3.5-3.5c-11.1-2.3-19-6-23-8.8c1.4,3.2,2.8,6.1,5,8.6c2.7,3,6.4,5,11.4,6.4h0c1.6,0.4,3.1,0.7,4.6,0.8
			c1.1,0.1,2.3,0.1,3.4,0.1C154.6,83.9,155.7,83.9,156.5,83.8z M225.1,83c0.1,0,0.1,0,0.2,0c1.6-0.7,14.5-6.2,29-9.7
			c-3-1.2-5.9-1.8-8.9-1.8c-2.3,0-4.7,0.3-7.3,1c-8.4,2.2-13.7,5.6-16.2,7.5c0.4,0.1,0.8,0.3,1.2,0.6c0.9,0.7,1.3,1.5,1.3,2.4
			C224.6,83,224.9,83,225.1,83z M264.6,80.7c2.9,0,7.3-0.3,11.3-1.9c3.8-1.5,5.9-5.5,6.6-7.4c-5.6,3-10.8,3.9-17.8,4.3
			c-0.6,1.9-1.7,2.7-2.5,3.3l-0.2,0.2c-0.6,0.4-1.4,0.9-2.1,1.2C260.9,80.5,262.5,80.7,264.6,80.7z M175.9,99.3
			c2.5-2.2,3.6-2.8,6.8-4.2c2-2.6,4.7-4.1,7.6-4.3c-3.3-2.6-5.5-5.3-5.5-9.5c0-4.1-2.4-8.4-4.6-9.9c-3.5-2.7-8.2-2.9-14.6-3.2
			c-4.4-0.2-9.3-0.4-15.2-1.5c-0.1,0-10.1-2-13-2.7c-0.1,0-7.5-1.5-11.4-2.8c0.5,1.8,2.1,3.6,4.6,5.4c0.3,0.2,7.7,5.2,21.2,8l0.1,0
			c0,0,1,0.2,1.3,0.3c11.5,2.2,13.9,2.9,14.1,3c3.5,1,6.4,2.3,7.5,3.4c0.5,0.5,1.1,1.2,1.1,1.2l0.5,0.6l-2.2-0.8
			c-2.6-1-4.7-1.7-7.5-2.4c-0.1,0-2-0.6-10.6-2.3c0.4,0.6,0.8,1.3,1,2l0.1,0.1c0.4,1.3,0.9,2.6,1.5,3.8c2.1,0.1,8.9,0.6,14.9,4.1
			c0.8-1,2-1.2,3-1.2c0,0,0.1,0,0.1,0c0-0.8,0.2-1.6,0.7-2.2c0.8-0.9,2-1,2.8-1c0.2,0,0.4,0,0.5,0c0.2-0.4,0.8-0.8,1.2-1
			c0.5-0.3,1.6-0.6,1.6-0.6l0.6-0.1l-0.8,1c-1,1.4-0.8,2.5-0.8,2.5l0.1,0.3l-1-0.1c-0.2,0-0.5,0-0.7,0c-1,0-1.8,0.2-2,0.5
			c-0.6,0.6-0.1,1.5-0.1,1.6l0.8,1.5l-0.4,0c-0.3,0-0.6-0.1-0.8-0.1c-0.6-0.1-1.2-0.1-1.8-0.1c-0.8,0-1.3,0.2-1.5,0.5l0,0.1
			c-0.2,0.4-0.5,0.9,1.4,2.7l0.3,0.3l-0.4,0.1c0,0-2.8,0.4-4.1,0.8c-0.4,0.1-0.6,0.3-0.6,0.5c0,0.1,0,0.5,0.9,1.1l1,0.6
			c0,0-2.2,1.1-2.2,2.5L175.9,99.3z M155.2,70.1C155.2,70.1,155.2,70.1,155.2,70.1c1.1,0,6.1,0.9,9.1,1.2c1.5,0.2,9.1,1.1,11.4,2.5
			c2.2,1.3,3.3,3.6,4,5.5l0.4,1c0,0-0.3,0-1.5-1.3c-0.8-1-2.1-2.6-3.9-3.5C169.3,73,160.7,73.1,155.2,70.1z M263.4,73.8
			c0.2,0,0.3,0,0.5,0c4.2-0.2,12.5-1.2,17-3.9c3.8-2,4.9-4.9,5.9-7.5c0,0-0.2,0.1-0.2,0.1c-1,0.4-2.1,0.9-4,1.5l-0.9,0.3
			c-2.4,0.8-6,1.9-9.6,2.9c-6,1.6-11.4,4.1-14.3,5.6C259.1,73.2,261.1,73.8,263.4,73.8z M205.3,81.1c1.5-1.3,1.4-2.3,1.3-2.9
			c-0.8-1.9-2.2-3.1-4.3-3.5l-9.7-1.3c0,0-0.1,0.1-0.1,0.2c0.1,0,0.2,0.1,0.3,0.1c1.1,0.5,3.3,1.7,4.1,4c0.2,0.7,0.7,0.8,3.2,0.9
			l0.8,0c0.6,0,0.9,0.1,1.3,0.1c1.1,0.1,1.9,1,2.1,1.2c0.1,0.2,0.6,0.8,0.7,1.4L205.3,81.1z M229.6,94.1c0.2,0,0.3-0.1,0.5-0.1
			c-1.1-1.2-2.5-2.1-2.5-2.1l0.8-0.4c0.6-0.3,1-0.7,1.1-1c0-0.2,0-0.3-0.1-0.5c-0.3-0.5-0.8-0.8-1.6-0.8c-0.3,0-0.6,0-0.8,0.1
			l-1.8,0.3l0.7-1.3c1.2-2.3,0.5-2.8,0.2-3c-0.4-0.3-0.9-0.4-1.3-0.4c-0.5,0-1,0.2-1.3,0.3c-0.1,0-0.2,0.1-0.3,0.1l-1.8,0.6
			c0,0,0.6-1.4,0.7-1.5c0.4-0.9,0.5-1.5-0.2-2.1c-0.3-0.2-0.6-0.4-1-0.4c-0.4,0-0.7,0.1-1.1,0.4l-1.7,1.1l0.1-0.5
			c0.3-1.8-1.4-4.2-1.4-4.2s1,0.1,2.3,0.8c0.1,0,0.1,0.1,0.2,0.1c2.4-2.2,7.9-6.3,18.4-9.1c2.8-0.8,5.4-1.1,7.8-1.1
			c3.4,0,6.7,0.7,10.2,2.2c2-1.1,8.5-4.4,16.1-6.5c4-1.1,7.8-2.4,9.3-2.9l2.5-0.9c2.4-1,5.3-2.6,6.7-7l-30.4,10.2
			c-4.5,1.8-12.7,2.5-19.9,3.1c-3.5,0.3-6.8,0.6-9.2,0.9c-13.4,2.3-14.8,8.8-15.6,12.3c0,0.2-0.1,0.4-0.1,0.6
			c-0.6,3.2-1.9,5.8-3.9,7.6c0.5,0,1,0,1.2,0c1.4,0,2.4,0.4,3.5,0.9c0.4,0.2,0.8,0.3,1.2,0.5c0.3,0.1,0.6,0.3,1,0.4
			c1.5,0.7,3.5,1.3,6.7,2.2l0.2,0.1c0.8,0.2,1.4,0.4,2,0.6c0.5,0.2,1.3,0.5,1.5,0.6C228.8,94.3,229.2,94.2,229.6,94.1z M206,74.2
			c0.8-0.4,0.8-1.5,0.7-1.9c-0.3-1.1-1.1-1.9-2.4-2.4c-0.7-0.2-1.6-0.4-2.6-0.4c-3.3,0-7.5,1.2-8.4,2.5l9.3,1.1
			c0.5,0.1,1.7,0.3,3,1.2C205.7,74.2,205.8,74.2,206,74.2z M150.6,95.1c-0.5-0.5-1.3-0.8-2-0.9c-1.3-0.1-2.8,0.5-4.1,1.6
			c2.9,0.2,3.3,1.4,4.9,0.2L150.6,95.1z M151.4,95.9l-1,1.1c-1.2,1.4,0,1.9,0.1,4.5c1.1-1.1,1.7-2.5,1.6-3.8
			C152.1,97.2,151.9,96.4,151.4,95.9z M147.7,99.2l-0.8,1.2c-0.9,1.6,0.3,1.8,0.8,4.5c1-1.3,1.3-2.8,1.1-4
			C148.6,100.3,148.3,99.6,147.7,99.2z M145.1,103.5l-0.6,1.3c-0.7,1.6,0.5,1.8,1.3,4.2c0.8-1.4,0.9-2.8,0.5-4
			C146.1,104.5,145.7,103.8,145.1,103.5z M146.6,98.5c-0.6-0.4-1.5-0.4-2.1-0.3c-1.3,0.3-2.6,1.2-3.5,2.7c2.8-0.6,3.6,0.5,4.7-1.1
			L146.6,98.5z M143.8,102.9c-0.7-0.2-1.6-0.1-2.2,0.1c-1.2,0.5-2.4,1.8-2.9,3.4c2.7-1.2,3.7-0.2,4.5-2.1L143.8,102.9z M142.8,106.9
			c-0.5,0.4-0.8,1-0.9,1.5c-0.2,1.1,0,2.3,0.9,3.5c0.5-2.3,1.5-2.5,0.8-3.9L142.8,106.9z M162.9,101.6l-0.3,1.5
			c-0.4,1.9,1,1.7,2.5,4.2c0.5-1.7,0.3-3.2-0.4-4.4C164.3,102.4,163.6,101.8,162.9,101.6z M161.9,101.3c-0.6-0.2-1.5-0.1-2,0.2
			c-1.1,0.5-2.1,1.7-2.6,3.2c2.4-1.2,3.4-0.3,4.1-2L161.9,101.3z M160.6,106c-0.6-0.3-1.4-0.3-2-0.1c-1.2,0.4-2.3,1.3-3,2.8
			c2.6-0.8,3.4,0.2,4.3-1.4L160.6,106z M158,110.3c-0.6-0.4-1.4-0.5-1.9-0.4c-1.2,0.2-2.4,1-3.3,2.3c2.6-0.4,3.2,0.6,4.4-0.8
			L158,110.3z M161.8,106.6L161,108c-0.9,1.8,0.5,1.9,1.2,4.7c0.9-1.5,1.2-3,0.8-4.3C162.8,107.7,162.4,107,161.8,106.6z M159.1,111
			l-1,1.2c-1.2,1.6,0.1,2,0.3,5c1.2-1.3,1.8-2.8,1.7-4.2C159.9,112.4,159.6,111.5,159.1,111z M156.1,113.9l-1.3-0.1
			c-1.6-0.1-1.3,1-3.1,2.5c1.4,0.2,2.7-0.2,3.5-0.9C155.6,115.1,156,114.5,156.1,113.9z M206.9,101.7c0.3,2.6,0.5,4.9-0.6,7v0
			c-0.2,0.5-0.5,1.2-0.7,1.5c-3.1-0.5-6.6-0.6-7.5-0.6c-0.6,0-1.1,0-1.5,0c-1.5,0.1-2.9,0.3-4,0.6c0.1-0.5,0.4-1.2,0.9-1.8l0.2-0.4
			l-0.4,0c-0.2,0-0.4,0-0.6,0c-1.7,0-2.8-0.4-3.5-1.4c-0.5-0.8-0.7-1.7-0.4-2.5c0.2-0.7,0.8-1.4,1.3-2.1c0.5-0.6,1.5-2.2,1.8-2.9
			c0.2-0.4,0.4-0.9,0.6-1.3c0.4,0.6,1.1,1,2,1.2c0.5,0.1,1,0.2,1.4,0.2c0.9,0,1.8-0.2,2.9-0.7c-1.5,1.4-5.8,2.2-5.8,2.2
			c-0.1,0.1,0,0.3,0.1,0.4c0,0,0.1,0,0.1,0c0.6,0.1,1.1,0.2,1.7,0.2c1.8,0,3.4-0.7,5.2-1.6c2.9-1.5,6.4-6.4,6.6-6.6
			c0.2-0.3,0.5-0.5,0.8-0.7c-1.3,2.2-1,4.7-0.7,7.3C206.8,100.5,206.8,101.1,206.9,101.7z M204.3,104.5c-0.7,1.3-1.5,2.5-4.1,2.6
			c-3.2,0.1-4-2.1-4-2.1c0.2,1,1,4,4,3.8C204.2,108.7,204.3,104.5,204.3,104.5z M208.7,105.3l0.2-0.2c0.2-0.3,0.4-0.6,0.4-0.7
			c1.2-2.1,1.4-3.8,1.4-4.6l0-0.1c0,0,0.2-1.3,0.7-1.3c3.4,0,7.4,0.7,10.6,1.3c0.8,0.2,1.7,0.3,2.5,0.5c1.1,0.3,2.3,0.4,3.5,0.4
			c1.8,0,3.7-0.3,5.7-0.8l8.2-2.4c0.3-0.1,0.7-0.1,1-0.2c1.2-0.3,2.3-0.6,3.7-0.6c0.4,0,1,0.1,1.4,0.1c2.9,0,6.2-1.4,7.2-2.2
			c1-0.8,1.2-1.5,1.4-2.3c0.1-0.4,0-0.6-0.1-0.7c-0.1-0.1-0.1-0.1-0.2-0.1c-0.2,0-0.7,0.2-1.2,0.4c-0.8,0.3-4.3,1.3-5,1.3
			c0.1-0.2,0.7-0.8,1.2-1.1c0.7-0.5,1.3-1,1.4-1.9c0-0.2-0.1-0.2-0.2-0.2c-0.1,0-0.2,0.1-0.2,0.1c-0.3,0.1-0.5,0.3-0.8,0.5
			c-0.6,0.4-1.2,0.9-2.1,0.9c0,0,0,0-0.1,0c0,0,0,0,0,0c-0.9,0.1-1.4,0.6-2,1.1c-0.6,0.6-1.2,1.2-2.3,1.3l-11.8,1.5
			c-0.9,0.1-1.8,0.3-2.6,0.5c-0.8,0.2-1.7,0.4-2.5,0.5c-1.6-0.6-3.5-1.2-5.3-1.7c-2.5-0.7-4.9-1.4-6.5-2.3c-0.2-0.1-2.4-1.3-4.5-1.3
			c-0.5,0-1,0.1-1.4,0.2h0h0c-0.2,0.2-2.5,1.8-2.2,6.2c0.1,1.8,0.2,3.1,0.4,4.1c0.1,0.6,0.1,1.1,0.2,1.6c0,0.1,0.1,1,0,1.8
			L208.7,105.3z M191.5,92.4c-0.1,0-0.2,0-0.3,0c-2.6,0-5,1.4-7.2,4.1c-2.8,1.2-5,2.6-7.5,4.6c-0.4,0-3.4-1.2-6.4-2.3
			c-1.8-0.7-3.6-1.4-5.1-1.9c-2-1.4-4.4-2.2-5.9-2.5c-0.3,0-0.6-0.1-1-0.1c-1.6,0-3.5,0.3-4.1,0.6c-0.1,0-0.2,0.1-0.2,0.3
			c0,0.1,0,0.2,0.1,0.2c0.1,0.1,0.2,0.1,0.4,0.1c0.2,0,0.5,0,0.9-0.1c0.5-0.1,1.1-0.2,1.8-0.2c1.8,0,2.8,0.7,3.2,2.2
			c-0.6,0.1-0.9,0.3-1.1,0.5c-0.2,0.2-0.5,0.4-1.3,0.6l-0.2,0h0c-0.1,0-0.2,0.1-0.2,0.2c0,0.1,0.1,0.3,0.1,0.3
			c0.2,0.1,0.5,0.2,0.8,0.2c0.4,0,0.8-0.1,1.1-0.2c0.3-0.2,0.7-0.2,1.1-0.2c0.6-0.1,1.2-0.2,2-0.6c2.2,0.9,4.2,2.3,6.2,4.1
			c1.3,1.2,2.9,2.6,5.8,4.1c0.2,0.1,0.5,0.2,0.8,0.2c0.5,0,1.1-0.2,1.7-0.6c1.8-1.1,11.2-6.5,12.1-7h0l0,0c1.1-1.1,1.8-3.4,1.9-3.6
			c0-0.1,0.1-0.3,0.1-0.5c0.2-0.8,0.5-1.9,0.6-2.5l0-0.1H191.5z M211.3,78c-0.7,0.7-1.4,0.9-1.9,0.9c-0.6,0-1.1-0.1-1.5-0.3
			c0,0.2,0,0.5,0.1,0.7c0.2,0.5,0.8,0.9,1.2,0.9C210.4,80.1,211.3,79.1,211.3,78z M207.7,76.7c0.9,0.6,1.7,0.7,2.4,0.4
			c0.9-0.4,1.2-1.4,1.3-1.5c0.1-0.8-0.2-0.9-0.7-1.1c-0.4-0.1-0.9-0.3-1-1c0-0.3-0.1-0.4-0.2-0.5c-0.2-0.2-0.7,0-0.9,0.1
			c-0.1,1.6-1,2.4-1.6,2.7L207.7,76.7z M198.5,68.4c0,0-1.1-0.5-2.3-0.6c-1.5-0.1-2.5,0.2-3,0.5c-0.9,0.4-1.4,1.6-0.9,2.3
			C193.8,69.4,196,68.8,198.5,68.4z M207.6,90.1c-0.5-0.2-0.8-0.2-1.3-0.4c-3.3-1.3-2-4.5-2.5-7.1c-0.1-0.5-0.2-1-0.9-0.8
			c-0.3,0.1-1.5,1.4-3.4,0.7c0.7-0.2,1.4-0.5,1.9-0.8c0.6-0.5,0.8-1.1,0.5-1.5c-0.2-0.3-0.6-0.4-1-0.3c-0.3,0.1-0.7,0.6-0.6,1.1
			c0,0-0.8,0.1-1.5-0.7c-0.3-0.3-0.9-0.4-1.5-0.4c-0.9,0.1-1.5-0.2-1.8-1.2c-0.4-1.7-2.2-3.1-3.7-3.9c-0.4,1-0.7,1.6-0.7,2.8
			c0.1,0.8,1.5,0.6,2,0.7c1.4,0.4-0.9,1.4-0.9,2c-0.1-0.2-0.2-0.6,0-0.8c0.4-0.5-0.4-0.5-0.6-0.7c0,1.4-1.1,3.2-1,3.7
			c0,0.1,1.2,0.2,1.2,0.2c0.3,0.3,0.1,0.9,0.1,1.2c0,0,0,0,0.1,0c0.1,0,0.5,0.1,0.6,0.1c0.1,0,0.2,0.1,0.2,0.2
			c0,0.1-0.1,0.2-0.2,0.2c0,0-0.2,0-0.4,0c0.1,0.4,0.1,0.7,0.6,0.9c0.2,0.4-0.1,1.3,0.5,1.5c1.8,0.4,4.1-1.6,6.1-3
			c-0.3,1.1-1.9,2.4-2.3,3.5c0,0-0.1,1.8-0.5,3c-0.5,1.4-2,1.2-3.2,1.8c0,0.1,0,0.2,0,0.3c0,0.2-0.1,0.4-0.1,0.6v0.1
			c0,0,0,0.1,0,0.2c-0.1,0.8-0.3,2.8,1,3.5c0.4,0.2,0.9,0.3,1.5,0.3c1.3,0,2.9-0.6,4.7-1.6c1.9-1.1,2.9-2,3.9-2.9
			C205.2,91.9,206.1,91.1,207.6,90.1z M235,101.4c2.1,3.3,5.2,3.2,7.4,2.6c-2.5-0.8-3.4-1.3-5.3-3.2
			C237.2,100.8,236,101.2,235,101.4z M190.3,110.1c-0.7-0.2-1.1-0.4-1.7-0.8c-1.9-1.3-3.1-4.1-1.7-6.5c0-0.1,0.1-0.2,0.4-0.6
			c-1,0.6-10.1,6-10.1,6s0,0.7,0.9,1c1.9,0.6,4.1,0.1,5.3-0.2c-0.9,0.9-2,2.9-1.4,5c1.8-0.5,2.7-0.8,4.1-2.9c0,1.9-0.2,5.1,1.5,6.7
			C188,117,189,113.9,190.3,110.1z M239.1,100.3c0.9,0.9,2.4,2.2,5.6,2.8c1.7,0.3,4.6-0.1,5.8-0.4c-3.2-0.8-5-2.2-6.8-3.7
			C243.1,99,240.9,99.6,239.1,100.3z M246.2,98.3c1.3,1.1,3,2.4,5.7,3.1c3.3,0.8,7.6-1.1,7.9-1.4c-2.9-0.1-5-1.1-7.3-2.6
			C249.9,98.8,247.3,97.9,246.2,98.3z M254.7,96.4c1.5,0.8,2.6,1.2,4,1.6c3.6,1.1,5.8-1.5,6.8-3c0-0.1,0-0.2-0.1-0.2
			c-4.6,0-5-0.4-6.8-1.2C258.4,94.2,257.4,95.6,254.7,96.4z"/>
		<path class="st0" d="M198.5,213.7c36.3,0,42.6,29.2,79.8,29.2c22.6,0,23-9.6,23-9.6l-3.8-19.6c4.9-5.9,25.1-5.2,25.1-5.2
			l-17.5-22.7c-16.3,1-29.7,5.2-29.7,12.3v21c-22,0-36.6-29.1-76.9-29.1c-40.3,0-55,29.1-76.9,29.1v-21c0-7-13.4-11.2-29.7-12.3
			l-17.5,22.7c0,0,20.2-0.7,25.1,5.2l-3.8,19.6c0,0,0.4,9.6,23,9.6C155.9,242.9,162.2,213.7,198.5,213.7z"/>
		<path class="st2" d="M285.4,206.9c8.7,2.4,9.5,3.9,9.7,4.8c0.2,0.9,0,1.7-0.7,2.5c-2.2,2.8-8.9,4.7-17,4.9v-16.2
			C279,204.6,281.6,205.9,285.4,206.9z M277.4,198c0,4,4.1,5.8,8.5,7c8.3,2.3,10.5,4,11.1,6.4c3.9-3,10.8-4.3,21.5-4.7l-14.6-19
			c-5.4,0.5-11.4,1.4-15.6,2.6C281.8,192.3,277.4,195,277.4,198z M295.8,215.7c-3.2,3.8-11.6,5.3-18.4,5.4h-2
			c-9.9,0-18.1-5.4-27.6-11.6c-12.1-7.9-25.9-16.9-47.3-17.4h-4c-21.5,0.5-35.2,9.5-47.3,17.4c-9.5,6.2-17.7,11.6-27.6,11.6h-2
			c-6.9-0.1-15.2-1.6-18.4-5.4l-3.4,17.7c0.3,1.2,2.7,7.6,21,7.6c18.1,0,28.4-7,39.4-14.4c10.3-7,21-14.2,38.5-14.8h4
			c17.5,0.5,28.1,7.8,38.5,14.8c10.9,7.4,21.2,14.4,39.4,14.4c18.3,0,20.7-6.4,21-7.6L295.8,215.7z M111.6,206.9
			c-8.7,2.4-9.5,3.9-9.7,4.8c-0.2,0.9,0,1.7,0.7,2.5c2.2,2.8,8.9,4.7,17,4.9v-16.2C118,204.6,115.3,205.9,111.6,206.9z M108.6,190.3
			c-4.2-1.2-10.2-2.1-15.6-2.6l-14.6,19c10.8,0.4,17.6,1.7,21.5,4.7c0.6-2.4,2.8-4.1,11.1-6.4c4.4-1.2,8.5-3,8.5-7
			C119.6,195,115.1,192.3,108.6,190.3z"/>
		<path class="st0" d="M293.5,232.1c0,0,0.5,2.2,0.4,2.4c0,0-0.3,0.1-0.4,0c-0.1-0.2-0.1-0.2-0.6-0.1c0,0-6.9,1.5-7,1.5
			c0,0-0.1-0.3,0-0.4c0.5-0.2,0.5-0.3,0.4-0.5l-1.9-8.5c0-0.2-0.1-0.3-0.8-0.3c0,0-0.1-0.3,0-0.4l6.7-1.5c0.4-0.1,0.5-0.2,0.6-0.5
			c0,0,0.2-0.1,0.4,0c0,0,0.5,2.3,0.4,2.4c0,0-0.3,0.1-0.4,0c-0.1-0.1-0.1-0.2-0.6-0.1c0,0-4,0.9-4,0.8c0,0,0.4,2,0.4,2.4
			c0,0,0,0,0,0c0,0,2.4-0.5,2.4-0.5c0.5-0.1,0.5-0.1,0.6-0.4c0,0,0.3-0.1,0.4-0.1c0,0,0.6,2.3,0.5,2.4c0,0-0.3,0.1-0.4,0.1
			c-0.1-0.1-0.2-0.2-0.6-0.2c0,0-2.1,0.5-2.4,0.5c0.1,0.3,0.5,2.2,0.5,2.5c0,0,0,0,0,0c0,0,4.4-1,4.4-1c0.5-0.1,0.5-0.1,0.6-0.5
			C293.1,232.1,293.4,232,293.5,232.1L293.5,232.1z M251.2,226.4c0,0,0.2,0.1,0.3,0.3c0,0-1.4,2.1-1.5,2.1c0,0-0.2-0.1-0.3-0.2
			c0.1-0.2,0.1-0.3-0.3-0.6c0,0-5.7-3.7-5.7-3.9c0,0,0.1-0.2,0.3-0.3c0.4,0.2,0.5,0.1,0.6-0.1l4.8-7.3c0.1-0.2,0.2-0.3-0.2-0.8
			c0,0,0.1-0.2,0.3-0.3c0,0,2.7,1.8,2.7,1.9c0,0-0.1,0.2-0.2,0.3c-0.5-0.2-0.6-0.2-0.7,0c0,0-4.2,6.4-4.3,6.4l3.6,2.4
			C250.8,226.6,250.8,226.6,251.2,226.4z M182,208.5c0,0-0.1,0.2-0.2,0.3c-0.1-0.1-0.2-0.1-0.3-0.1c-0.6,0.4-0.8,1.7-3,2.4
			c-2.7,0.8-5.2-0.7-6.1-3.6c-1.1-3.6,0.8-6,3.2-6.7c2-0.6,2.9,0.3,3.1,0c0.2-0.2,0.3-0.4,0.4-0.4l0.2,0l-0.1,0.3
			c0,0-0.6,2.6-0.7,2.7l-0.2,0c0,0,0-0.3-0.3-0.6c-0.4-0.4-1.2-0.5-1.9-0.3c-0.9,0.2-2.8,1-1.7,4.3c0.5,1.6,1.6,3,3.7,2.4
			c0.6-0.2,1.2-0.6,1.4-1.1c0,0,0.2-0.5,0-1.1c0,0,0.1-0.2,0.2-0.2L182,208.5z M121.4,227.1c-0.8-0.9-2-1.3-3.3-1.4
			c-1.3,0-2.5,0.4-3.3,1.2c-1,0.9-1.6,2.4-1.6,4c-0.1,3.2,1.8,5.4,4.7,5.5c1.3,0,2.5-0.4,3.3-1.2c1-0.9,1.6-2.4,1.6-4
			C122.9,229.6,122.4,228.1,121.4,227.1z M120.7,231.1c0,1.3-0.4,2.2-1,2.8c-0.4,0.4-1,0.6-1.8,0.6c-1.7,0-2.6-1.3-2.5-3.6
			c0-1.3,0.4-2.2,1-2.8c0.4-0.4,1-0.6,1.7-0.6c0.7,0,1.3,0.2,1.7,0.7C120.4,228.9,120.7,229.9,120.7,231.1z M278.5,226.2l-4.3,0
			c-0.1,0.1-0.1,0.4-0.1,0.4c0.4,0.1,0.5,0.2,0.5,0.5l0,8.7c0,0.3,0,0.3-0.4,0.4l-0.1,0.4c0.1,0.1,4,0.1,4,0.1c1.7,0,3-0.4,3.9-1.3
			c0.9-0.9,1.3-2.2,1.3-3.9C283.3,228.2,281.5,226.3,278.5,226.2z M281.1,231.5c0,2.6-0.8,3.4-3.4,3.4h-1.1c0.1,0,0.1-6.2,0.1-6.8
			c0.2,0,1,0,1,0C280.3,228.1,281.2,229,281.1,231.5L281.1,231.5L281.1,231.5z M210,197.7c0,0,0.9,0.5,1,0.5c0.1,0,0.3,0,0.4-0.1
			l0.3,0.2c0,0-1.8,2.3-1.9,2.3c0,0-0.2-0.1-0.3-0.2c0,0,0-0.3,0.1-0.3c0.1-0.5-0.9-1.2-2.3-1.4c-0.5-0.1-1,0-1.2,0.2
			c-0.3,0.2-0.4,0.5-0.4,0.7c-0.1,0.8,0.9,1.2,2.1,1.6c1.7,0.6,3.9,1.4,3.6,3.9c-0.1,0.8-0.5,1.5-1.2,2c-0.7,0.5-1.9,1.1-3.9,0.8
			c0,0-2-0.4-3.4-1.3c0,0,0,0-0.4,0.2l-0.3-0.2l0.1-0.1c0,0,1.5-2.3,1.6-2.4l0.3,0.1c0,0,0,0.2,0,0.2c-0.1,0.8,1.7,1.4,2.5,1.5
			c1,0.1,1.7,0,2.1-0.3c0.2-0.2,0.4-0.5,0.4-0.9c0.1-0.9-1-1.2-2.2-1.7c-1.7-0.6-3.7-1.3-3.5-3.5c0.2-1.4,1.4-3,4.2-2.6
			C208.6,197.1,209.4,197.4,210,197.7z M227.2,202.9c-0.1,0.1-0.2,0.3-0.2,0.3c0.3,0.3,0.3,0.4,0.3,0.4l-0.6,0.6l-6,6.1
			c0,0-0.2,0.2-0.4,0.2c-0.1,0-0.2,0-0.4,0l-0.1,0.3l2.7,1.2l0.1-0.3c0,0-0.1-0.1-0.1-0.1c0-0.1,0-0.1,0-0.2c0-0.1,0.1-0.2,0.1-0.2
			s1.2-1.3,1.2-1.4c0.1,0.1,3.1,1.5,3.1,1.5c0,0.1-0.2,1.8-0.2,1.8s0,0.2-0.1,0.2c0,0.1-0.1,0.1-0.2,0.1c-0.1,0-0.1,0-0.2,0
			l-0.1,0.3l2.7,1.2l0.1-0.3c-0.1-0.1-0.2-0.2-0.2-0.3c-0.1-0.1-0.1-0.4-0.1-0.4l0.8-8.6l0.1-0.8c0-0.1,0.1-0.2,0.4-0.1
			c0.1-0.1,0.2-0.3,0.2-0.3C230.2,204.2,227.2,202.9,227.2,202.9z M227.1,209.8c0,0-1.9-0.9-2.2-1c0.2-0.2,2.4-2.7,2.8-3
			C227.6,205.7,227.2,209.7,227.1,209.8z M258.9,221.2c-0.1,0-0.2,0.3-0.2,0.3c0.3,0.3,0.3,0.4,0.3,0.4l-0.6,0.6
			c0,0-6.2,5.9-6.2,5.9c0,0-0.2,0.2-0.4,0.2c-0.1,0-0.2,0-0.4,0l-0.2,0.3l2.6,1.3l0.2-0.3c0,0-0.1-0.1-0.1-0.1c0-0.1,0-0.1,0-0.2
			c0-0.1,0.2-0.2,0.2-0.2s1.2-1.2,1.3-1.3c0.1,0.1,3.1,1.6,3.1,1.6c0,0.1-0.3,1.8-0.3,1.8s0,0.2-0.1,0.2c0,0.1-0.1,0.1-0.2,0.1
			c-0.1,0-0.1,0-0.2,0l-0.2,0.3l2.6,1.3l0.2-0.3c-0.1-0.1-0.1-0.2-0.2-0.3c-0.1-0.1-0.1-0.4-0.1-0.4l1-8.5l0.1-0.8
			c0-0.1,0.1-0.2,0.4-0.1c0.1,0,0.2-0.3,0.2-0.3C261.8,222.6,258.9,221.2,258.9,221.2z M258.6,228.1c0,0-1.9-1-2.2-1.1
			c0.2-0.2,2.5-2.6,2.9-2.9C259.2,224.1,258.6,228,258.6,228.1z M201.4,204.9c0,0,0.1,2.3,0,2.4c0,0-0.3,0.1-0.4,0
			c0-0.2-0.1-0.2-0.6-0.2c0,0-7.1,0.2-7.2,0.1c0,0,0-0.3,0.1-0.4c0.5-0.1,0.5-0.2,0.5-0.4l-0.3-8.7c0-0.2,0-0.3-0.7-0.5
			c0,0,0-0.3,0.1-0.4l6.9-0.2c0.5,0,0.5-0.1,0.6-0.4c0,0,0.3,0,0.4,0.1c0,0,0.1,2.4,0,2.5c0,0-0.3,0-0.4-0.1c0-0.2-0.1-0.2-0.6-0.2
			c0,0-4.1,0.1-4.1,0c0,0,0.1,2.1,0,2.4c0,0,0,0,0,0c0,0,2.5-0.1,2.5-0.1c0.5,0,0.5,0,0.6-0.3c0,0,0.3-0.1,0.4,0c0,0,0.1,2.4,0,2.5
			c0,0-0.3,0-0.4,0c0-0.2-0.1-0.3-0.6-0.3c0,0-2.2,0.1-2.4,0.1c0,0.3,0.1,2.3,0,2.6c0,0,0,0,0,0c0,0,4.5-0.1,4.5-0.1
			c0.5,0,0.5-0.1,0.6-0.3C201,204.9,201.3,204.8,201.4,204.9L201.4,204.9z M129.3,224.9c0,0,0.9,0.2,1.1,0.2c0.1,0,0.2-0.1,0.3-0.3
			l0.4,0.1c0,0-0.9,2.6-1.1,2.7c0,0-0.3-0.1-0.4-0.1c0,0,0-0.3,0-0.3c-0.1-0.5-1.2-0.8-2.5-0.6c-0.5,0.1-0.9,0.3-1.1,0.6
			c-0.2,0.3-0.2,0.5-0.1,0.8c0.2,0.8,1.2,0.8,2.5,0.8c1.8,0,4,0.1,4.5,2.5c0.1,0.8,0,1.6-0.5,2.2c-0.5,0.7-1.4,1.6-3.4,1.9
			c0,0-1.9,0.3-3.6-0.2c0,0-0.1,0-0.3,0.3l-0.3-0.1l0-0.1c0,0,0.7-2.6,0.8-2.7l0.3,0.1c0,0,0,0.2,0.1,0.2c0.1,0.7,2,0.7,2.8,0.6
			c0.9-0.2,1.5-0.5,1.8-0.9c0.1-0.2,0.2-0.5,0.1-0.9c-0.1-0.8-1.3-0.9-2.6-0.9c-1.7,0-3.9-0.1-4.3-2.2c-0.3-1.4,0.4-3.2,3.1-3.8
			C127.8,224.8,128.6,224.7,129.3,224.9z M151.8,222.8c0,0,1.2,1.9,1.2,2.1c0,0-0.2,0.2-0.3,0.2c-0.1-0.1-0.2-0.2-0.6,0.1
			c0,0-5.9,3.9-6.1,3.8c0,0-0.2-0.2-0.1-0.4c0.4-0.3,0.4-0.4,0.2-0.6l-4.8-7.3c-0.1-0.2-0.2-0.3-0.8-0.1c0,0-0.1-0.2-0.1-0.4
			l5.7-3.7c0.4-0.2,0.4-0.4,0.4-0.6c0,0,0.2-0.2,0.4-0.1c0,0,1.3,2,1.2,2.1c0,0-0.2,0.2-0.4,0.1c-0.1-0.1-0.2-0.1-0.6,0.1
			c0,0-3.4,2.2-3.5,2.2c0,0,1.1,1.8,1.2,2c0,0,0,0,0,0c0,0,2.1-1.4,2.1-1.4c0.4-0.2,0.4-0.3,0.4-0.6c0,0,0.2-0.2,0.3-0.2
			c0,0,1.3,1.9,1.3,2.1c0,0-0.3,0.2-0.3,0.2c-0.1-0.1-0.3-0.2-0.6,0.1c0,0-1.9,1.2-2,1.3c0.2,0.2,1.2,1.9,1.4,2.2c0,0,0,0,0,0
			c0,0,3.8-2.4,3.8-2.4c0.4-0.2,0.4-0.3,0.4-0.6C151.4,223,151.6,222.8,151.8,222.8L151.8,222.8z M160.4,207.8
			c0,0.1,0.1,0.4,0.1,0.4c0.4-0.1,0.5,0,0.5,0l0.2,0.8l1.2,8.5c0,0,0,0.2,0,0.4c-0.1,0.1-0.1,0.2-0.2,0.3l0.2,0.3l2.6-1.4l-0.2-0.3
			c0,0-0.1,0-0.2,0c-0.1,0-0.1,0-0.2-0.1c0-0.1-0.1-0.2-0.1-0.2s-0.3-1.7-0.3-1.8c0.1,0,3.1-1.6,3.1-1.6c0.1,0.1,1.3,1.3,1.3,1.3
			s0.1,0.1,0.2,0.2c0,0.1,0,0.1,0,0.2c0,0.1-0.1,0.1-0.1,0.1l0.2,0.3l2.6-1.4l-0.2-0.3c-0.1,0-0.3,0-0.4,0c-0.2,0-0.4-0.2-0.4-0.2
			l-6.4-5.8l-0.6-0.6c0-0.1-0.1-0.2,0.2-0.4c0-0.1-0.1-0.4-0.1-0.4C163.2,206.2,160.4,207.8,160.4,207.8z M165.9,212
			c0,0-1.9,1-2.2,1.2c0-0.2-0.7-3.6-0.8-4C162.9,209.1,165.8,211.9,165.9,212z M220.4,209.7c0,0-0.2,0.1-0.4,0.1
			c-0.1-0.1-0.1-0.2-0.2-0.2c-0.7,0-1.6,1-3.8,0.3c-2.7-0.8-4-3.4-3.1-6.4c1.1-3.6,4-4.5,6.4-3.8c2,0.6,2.2,1.8,2.6,1.7
			c0.3-0.1,0.5-0.1,0.5-0.1l0.2,0.1l-0.2,0.2c0,0-1.9,1.9-2,1.9l-0.2-0.1c0,0,0.1-0.3,0.1-0.6c-0.1-0.5-0.8-1.1-1.4-1.3
			c-0.9-0.2-2.8-0.7-3.8,2.6c-0.4,1.6-0.3,3.4,1.7,4.1c0.6,0.2,1.3,0.1,1.8-0.1c0,0,0.5-0.3,0.6-1c0,0,0.2-0.1,0.3,0L220.4,209.7z
			 M109.8,224.4l-4.7-0.9c-0.1,0.1-0.1,0.4-0.1,0.4c0.4,0.2,0.5,0.4,0.4,0.6l-1.7,8.6c0,0.2-0.1,0.4-0.5,0.3
			c-0.1,0.1-0.1,0.4-0.1,0.4c0,0,3.1,0.6,3.1,0.6l0.1-0.4c-0.4-0.2-0.4-0.3-0.4-0.5c0,0,0-0.1,0-0.1c0,0,0.7-3.4,0.7-3.4
			c0,0.1,2,0.5,2,0.5c2.6,0.5,3.9-0.9,4.2-2.4C113,226.7,112.4,224.9,109.8,224.4z M108.6,228.7c0,0-1.7-0.3-1.7-0.3
			c0.1-0.3,0.4-2.2,0.5-2.5c0.2,0,1.7,0.3,1.7,0.3c1.3,0.3,1.7,0.7,1.6,1.6C110.4,228.7,109.9,228.9,108.6,228.7z M161.3,218.5
			c-0.4,0.1-0.5,0-1.1-0.4l-3-1.7c1.2-1.3,1-2.7,0.3-3.8c-0.8-1.3-2.5-2.1-4.8-0.6l-4,2.6c0,0.1,0.2,0.3,0.2,0.3
			c0.5-0.1,0.6-0.1,0.7,0.1l4.8,7.3c0.1,0.2,0.2,0.4-0.1,0.6c0,0.1,0.2,0.4,0.2,0.4c0,0,2.7-1.7,2.7-1.7l-0.2-0.4
			c-0.4,0.1-0.5,0.1-0.6,0c0,0-0.1-0.1-0.1-0.1c0,0-1.8-2.8-1.8-2.8c0,0,0.6-0.4,1-0.7c0.5,0.3,3.5,2,3.5,2c0.1,0.1-0.1,0.3-0.2,0.3
			c0,0.1,0.2,0.4,0.2,0.4c0.1,0,2.6-1.6,2.6-1.6C161.5,218.7,161.3,218.5,161.3,218.5z M152.1,214.7c0.2-0.1,1.5-1,1.5-1
			c1.1-0.7,1.7-0.7,2.2,0.1c0.5,0.8,0.3,1.3-0.9,2c0,0-1.4,0.9-1.5,1C153.3,216.6,152.2,215,152.1,214.7z M191.9,207.1
			c-0.4-0.1-0.5-0.2-0.9-0.8l-2.1-2.7c1.6-0.7,2-2.1,1.8-3.3c-0.3-1.5-1.5-2.9-4.1-2.4l-4.7,0.9c-0.1,0.1,0,0.4,0,0.4
			c0.5,0.1,0.5,0.2,0.6,0.4l1.6,8.6c0,0.2,0,0.4-0.4,0.5c-0.1,0.1,0,0.4,0,0.4c0,0,3.1-0.6,3.1-0.6l-0.1-0.4
			c-0.4-0.1-0.5-0.1-0.6-0.3c0,0,0-0.1,0-0.1c0,0-0.6-3.2-0.6-3.3c0,0,0.6-0.1,1.2-0.2c0.3,0.5,2.4,3.2,2.4,3.2
			c0.1,0.1-0.2,0.2-0.3,0.2c0,0,0.1,0.4,0.1,0.4c0,0,3-0.5,3-0.5C191.9,207.4,191.9,207.1,191.9,207.1z M184.7,200.1
			c0.2,0,1.7-0.3,1.7-0.3c1.3-0.2,1.9,0,2,0.9c0.2,0.9-0.3,1.3-1.6,1.6c0,0-1.7,0.3-1.7,0.3C185.2,202.3,184.8,200.4,184.7,200.1z
			 M140.6,230.8c0.1,0.2,0.2,0.3,0.6,0.2l0.2,0.3l-0.1,0c0,0-2.4,1.1-2.6,1.2c0,0-0.2-0.3-0.1-0.4c0.1,0,0.2-0.2,0.2-0.3
			c0-0.1,0-0.1-0.1-0.2c0,0-3.1-6.7-3.2-7l-2.1,1c-0.3,0.2-0.4,0.2-0.4,0.5c0,0,0,0.1,0,0.2c0,0-0.2,0.2-0.4,0.1c0,0-1.1-2.3-1-2.4
			c0,0,0.2-0.1,0.3-0.1c0.1,0.2,0.2,0.2,0.6,0l6-2.8c0.4-0.2,0.5-0.2,0.5-0.5c0,0,0.2-0.1,0.3-0.2c0,0,1.1,2.3,1.1,2.5
			c0,0-0.2,0.2-0.4,0.1c-0.2-0.2-0.3-0.4-0.7-0.2c0,0-1.9,0.9-2,0.9C137.4,223.8,140.6,230.8,140.6,230.8z M265.7,235.4
			c-2.6-0.7-3.6-2.4-2.9-4.9l1.5-5.5c0.1-0.2-0.1-0.5-0.4-0.6c0-0.1,0.1-0.4,0.1-0.4s2.1,0.6,3.1,0.9c0,0-0.1,0.3-0.2,0.4
			c-0.3,0-0.4,0.1-0.5,0.3l-1.5,5.6c-0.2,0.6-0.1,1.2,0.1,1.6c0.2,0.4,0.6,0.7,1.2,0.9c0.6,0.1,1.1,0.1,1.5-0.1
			c0.4-0.2,0.8-0.7,1-1.3l1.6-5.6c0.1-0.2,0.1-0.4-0.2-0.5c-0.1-0.1,0-0.4,0-0.4c0.9,0.2,3.1,0.9,3.1,0.9s0,0.3-0.1,0.4
			c-0.4,0-0.6,0.1-0.6,0.3l-1.6,5.5C270,235.2,268.3,236.1,265.7,235.4z M234,218.3c0,0-0.1-0.1-0.1-0.1c0,0,1.3-6.8,1.6-7.9
			c0-0.1,0-0.1,0-0.2c-0.4,0.7-3.7,5.9-3.7,5.9c0,0-0.1,0.1-0.1,0.2c0,0.1,0.1,0.2,0.2,0.4l-0.2,0.3c0,0-2.3-1.4-2.4-1.5
			c0,0,0.1-0.3,0.2-0.3c0.2,0.1,0.4,0,0.5-0.1l4.8-7.6c0.1-0.1,0.1-0.2-0.1-0.5c0,0,0.1-0.3,0.2-0.3c0,0,3.1,1.9,3.1,2
			c0,0-0.1,0.2-0.2,0.3c-0.2,0-0.3,0.1-0.4,0.1c-0.1,0.2-1.2,5.9-1.2,5.9c0,0,4.8-3.5,4.9-3.6c0,0,0.1-0.2,0-0.4
			c0-0.1,0.1-0.4,0.1-0.4c0,0,3.1,1.9,3.1,1.9c0,0.1-0.2,0.4-0.2,0.4c-0.4-0.1-0.5,0-0.5,0.1l-4.8,7.6c-0.1,0.2-0.1,0.4,0.1,0.5
			c0,0.1-0.2,0.3-0.2,0.3c-0.2-0.1-2.4-1.5-2.4-1.5l0.2-0.3c0.3,0.1,0.4,0.1,0.5,0c0.1,0,0.1-0.1,0.1-0.1c0,0,3.3-5.2,3.8-5.9
			c0,0-0.1,0.1-0.2,0.1c-0.9,0.8-6.5,4.8-6.5,4.8C234.1,218.4,234,218.4,234,218.3z"/>
		<path class="st2" d="M49.3,301.7h303v1.7h-303V301.7z M87.2,263h-0.8l-2.9-0.1c-0.2,0-0.7,0-0.7,0.5c0,0.2,0.2,0.4,0.4,0.4
			l0.9,0.1c0.8,0.2,1,0.5,1.1,1.4l0.1,6.2v0.6L73.2,272l0-0.6l0.1-6.2c0.1-1,0.3-1.3,0.9-1.4l0.7-0.1c0.2,0,0.5-0.2,0.5-0.4
			c0-0.3-0.2-0.5-0.7-0.5l-2.3,0.1h-0.9l-2.9-0.1c-0.5,0-0.7,0.1-0.7,0.5c0,0.2,0.2,0.4,0.4,0.4l0.9,0.1c0.8,0.2,1,0.5,1.1,1.4
			l0.1,6.2v5c0,2.7,0,5-0.1,6.2c-0.1,0.9-0.2,1.3-0.7,1.4l-0.8,0.1c-0.3,0-0.5,0.2-0.5,0.4c0,0.4,0.5,0.4,0.7,0.4l2.3-0.1h0.8
			l3.2,0.1c0.6,0,0.7-0.3,0.7-0.4c0-0.2-0.1-0.4-0.4-0.4l-1.3-0.1c-0.7-0.1-0.8-0.5-0.9-1.4c-0.1-1.2-0.1-3.5-0.1-6.2v-3l12.1,0
			l-0.1,3c0,2.7,0,5-0.1,6.2c-0.1,0.8-0.2,1.3-0.7,1.4l-0.8,0.1c-0.3,0-0.5,0.2-0.5,0.4c0,0.4,0.5,0.4,0.7,0.4l2.4-0.1H87l3.2,0.1
			c0.6,0,0.7-0.3,0.7-0.4c0-0.2-0.1-0.4-0.5-0.4l-1.3-0.1c-0.7-0.1-0.9-0.5-0.9-1.4c-0.1-1.2-0.1-3.5-0.1-6.2v-5l0.1-6.2
			c0.1-1,0.3-1.3,0.9-1.4l0.7-0.1c0.3,0,0.5-0.2,0.5-0.4c0-0.5-0.5-0.5-0.7-0.5L87.2,263z M105.5,262.8c-0.6,0.1-1.2,0.1-1.2,0.1
			l-6.6,0l-0.4,0l-2.9-0.1c-0.2,0-0.7,0-0.7,0.4c0,0.2,0.2,0.4,0.4,0.4l0.9,0.1c0.8,0.1,1,0.5,1.1,1.4l0.1,6.2v5c0,2.7,0,5-0.1,6.2
			c-0.1,0.9-0.2,1.3-0.7,1.4c-0.1,0-0.8,0.1-0.8,0.1c-0.3,0-0.4,0.2-0.4,0.4c0,0.4,0.5,0.4,0.7,0.4l2.3-0.1l1.6,0l6,0.1
			c1.1,0,1.5,0,1.8-0.9c0.1-0.6,0.4-2.6,0.4-2.8c0-0.2,0-0.6-0.4-0.6c-0.4,0-0.4,0.4-0.5,0.6c-0.2,1.1-0.5,1.6-1.2,1.9
			c-0.7,0.3-1.9,0.3-2.7,0.3c-2.8,0-3-0.4-3.1-2.1v-3.6v-1.3v-2.5c0,0,4.1,0.2,4.1,0.2c1,0.1,1.2,0.5,1.3,0.8
			c0.1,0.3,0.1,0.9,0.1,0.9c0,0.3,0.2,0.5,0.4,0.5c0.4,0,0.4-0.5,0.4-0.8l0.1-1.8l0.2-1.6c0-0.4-0.3-0.5-0.4-0.4
			c-0.1,0-0.4,0.3-0.6,0.4c-0.5,0.3-0.5,0.3-1.2,0.4l-4.5,0.1l0-8c0.3-0.1,3.4,0,3.9,0c1.6,0.2,1.7,0.5,1.9,0.9l0.1,0.9
			c0,0.5,0.3,0.6,0.5,0.6c0.1,0,0.3-0.1,0.4-0.5l0.1-1.5l0-0.5l0.2-1l0.1-0.4c0-0.4-0.2-0.5-0.3-0.5
			C105.8,262.7,105.8,262.8,105.5,262.8z M144.4,264.2l0,16.4c0,2.6-0.2,3.4-0.7,3.4c-0.5,0.1-1.1,0.2-1.1,0.2
			c-0.3,0-0.5,0.2-0.5,0.4c0,0.4,0.5,0.4,0.7,0.4l2.3-0.1h0.9l2.6,0.1c0.2,0,0.7,0,0.7-0.4c0-0.2-0.1-0.4-0.5-0.4
			c0,0-0.8-0.1-1.4-0.2c-0.5-0.1-0.9-0.7-1-3.1c0,0-0.3-12.1-0.4-13.1c0.7,0.8,7.1,7.8,7.1,7.8c3.1,3.4,7.2,7.5,7.5,7.8
			c1.6,1.6,1.9,1.9,2.2,1.9c0.4,0,0.5-0.3,0.5-2.2l0-16.8c0-1.8,0.1-2.2,0.9-2.4l0.6-0.1c0.4,0,0.5-0.2,0.5-0.4
			c0-0.4-0.5-0.4-0.7-0.4L163,263h-1.1l-2.4-0.1c-0.3,0-0.8,0-0.8,0.4c0,0.3,0.1,0.4,0.5,0.4l1.4,0.1c0.7,0.1,0.9,0.6,0.9,2.5
			c0,0,0.2,11.3,0.3,14c-0.6-0.6-2.1-2.3-2.1-2.3l-4.4-4.8l-9.4-10.1c-0.4-0.5-0.7-0.7-0.9-0.7C144.4,262.5,144.4,263.2,144.4,264.2
			z M172.5,263h-0.9l-2.5-0.1c-0.2,0-0.7,0-0.7,0.5c0,0.2,0.1,0.4,0.4,0.4l0.8,0.1c0.4,0.1,0.8,0.4,0.8,1.4l0.1,6.2v5
			c0,2.7,0,5-0.1,6.2c-0.1,0.9-0.2,1.3-0.7,1.4l-0.8,0.1c-0.4,0-0.5,0.2-0.5,0.4c0,0.4,0.5,0.4,0.7,0.4l2.4-0.1h0.8l3.2,0.1
			c0.6,0,0.7-0.3,0.7-0.4c0-0.2-0.1-0.4-0.4-0.4l-1.2-0.1c-0.7-0.1-0.9-0.5-0.9-1.4c-0.1-1.2-0.1-3.5-0.1-6.2v-5l0.1-6.2
			c0.1-1,0.3-1.3,0.9-1.4l0.7-0.1c0.3,0,0.5-0.2,0.5-0.4c0-0.5-0.5-0.5-0.7-0.5L172.5,263z M199,263h-1.1l-2.1-0.1
			c-0.3,0-0.9,0-0.9,0.4c0,0.1,0.1,0.4,0.5,0.4l1,0.1c0.2,0,0.3,0.3,0.2,0.5l-0.2,1c-0.6,1.9-4.1,11.2-5.9,15.4
			c-0.4-1-5.3-14.2-5.3-14.2c-0.4-1.1-0.8-2-0.8-2.3c0-0.1,0-0.3,0.2-0.4l1-0.1c0.5,0,0.5-0.3,0.5-0.4c0-0.4-0.6-0.4-1-0.4l-2.1,0.1
			h-1.3l-2.6-0.1c-0.4,0-1,0-1,0.4c0,0.2,0.1,0.4,0.5,0.4l1,0.1c0.9,0.1,1.3,0.5,1.9,2.1l7.1,17.8c0.5,1.3,0.7,1.8,1.2,1.8
			c0.4,0,0.5-0.3,0.9-1.2l0.5-1.1l3.5-8.3l1.7-4.1l1.7-4.1c0.8-1.9,1.2-2.4,1.5-2.6c0.5-0.3,1.1-0.3,1.2-0.3c0.5,0,0.6-0.3,0.6-0.4
			c0-0.3-0.2-0.4-0.7-0.4L199,263z M242.7,267.9c0,2,0.6,3.8,3.8,6.4l1.3,1.1c2.5,2.1,3.2,3.1,3.2,5c0,1.8-1.3,3.6-3.9,3.6
			c-1,0-3.5-0.3-4-2.8l-0.1-1c0-0.2,0-0.5-0.4-0.5c-0.4,0-0.4,0.4-0.5,0.6l0,0.3l-0.1,2.8c0,0.8,0,1,0.6,1.3
			c1.1,0.5,2.4,0.8,3.9,0.8c1.8,0,3.3-0.4,4.5-1.2c1.9-1.3,2.5-3.4,2.5-4.9c0-2.2-0.7-4.1-4.3-6.9l-0.8-0.6
			c-2.8-2.2-3.4-3.2-3.4-4.6c0-1.9,1.3-3.1,3.3-3.1c2.4,0,3.2,1,3.4,1.4c0.1,0.3,0.3,1,0.4,1.4c0,0.2,0.1,0.6,0.4,0.6
			c0.4,0,0.4-0.6,0.4-0.9l0.1-2.8v-0.2c0-0.4-0.4-0.4-0.5-0.4c-0.1,0-1-0.1-1-0.1c-0.8-0.2-1.7-0.3-2.7-0.3
			C245.1,262.5,242.7,264.7,242.7,267.9z M304.2,263H303l-1.4-0.1c-0.6,0-0.7,0.2-0.7,0.4c0,0.3,0.3,0.4,0.6,0.5
			c0.1,0.1,0.3,0.1,0.3,0.6c0,0.4-0.1,0.9-0.5,1.4c-0.5,0.8-3.7,6.4-4.6,8.1c-1-1.6-4.6-7.9-5.1-8.7c-0.2-0.4-0.3-0.7-0.3-1
			c0-0.1,0.1-0.2,0.2-0.3l0.1-0.1c0.2-0.1,0.4-0.1,0.4-0.4c0-0.3-0.2-0.4-0.6-0.4l-2,0.1h-1.1l-2.2-0.1c-0.6,0-0.6,0.4-0.6,0.4
			c0,0.2,0.2,0.4,0.5,0.4c0.2,0,0.7,0.1,1.1,0.4c0.6,0.4,1.3,1.1,1.9,2.1c1,1.5,4.9,7.8,5,8.2c0.4,0.8,0.6,1.4,0.6,2.9v2.5l-0.1,2.9
			c0,0.6-0.2,1.3-0.7,1.4l-0.8,0.1c-0.4,0-0.5,0.2-0.5,0.4c0,0.4,0.5,0.4,0.7,0.4l2.4-0.1h0.8l3.2,0.1c0.6,0,0.7-0.3,0.7-0.4
			c0-0.2-0.1-0.4-0.4-0.4l-1.3-0.1c-0.6-0.1-0.9-0.5-1-1.4l-0.1-2.9v-2.5c0-0.9,0-1.8,0.4-2.8c0.5-1.2,4.5-7.9,5.4-9.1
			c0.6-0.8,0.9-1.1,1.5-1.4c0.4-0.2,0.9-0.4,1.2-0.4c0.4,0,0.6-0.2,0.6-0.5c0-0.2-0.1-0.4-0.6-0.4L304.2,263z M314.7,273.9
			c0-4.4,3.1-11.4,11.5-11.4c6.9,0,11.5,4.4,11.5,11c0,6.9-4.9,12-11.6,12C318.3,285.4,314.7,279.5,314.7,273.9z M317.9,273.2
			c0,6.3,3.7,10.8,9,10.8c1.3,0,7.7-0.5,7.7-9.6c0-7.1-4.4-10.4-8.5-10.4C321,263.9,317.9,267.5,317.9,273.2z M351.6,263
			c-0.1,0-0.3,0-0.3,0l-7,0l-0.4,0l-2.9-0.1c-0.2,0-0.7,0-0.7,0.5c0,0.2,0.1,0.4,0.5,0.4l0.9,0.1c0.8,0.1,1,0.5,1.1,1.4l0.1,6.2v5
			c0,2.7,0,5-0.1,6.2c-0.1,0.9-0.2,1.3-0.7,1.4l-0.8,0.1c-0.4,0-0.4,0.2-0.4,0.4c0,0.4,0.5,0.4,0.7,0.4l2.3-0.1h0.8l3.2,0.1
			c0.6,0,0.7-0.3,0.7-0.4c0-0.2-0.1-0.4-0.5-0.4l-1.2-0.1c-0.7-0.1-0.9-0.5-0.9-1.4c-0.1-1.2-0.1-3.5-0.1-6.2v-2.4
			c1.1,0,3.6,0,4.3,0c0.8,0.1,1.2,0.6,1.3,0.9c0.1,0.3,0.1,0.7,0.1,1c0,0.3,0.2,0.4,0.4,0.4c0.4,0,0.4-0.5,0.4-0.8l0.1-1.9l0.2-1.6
			c0-0.4-0.3-0.4-0.4-0.4c-0.2,0-0.3,0.2-0.4,0.3c-0.2,0.3-0.5,0.4-1.2,0.5l-1.3,0l-3.7,0l0-8c0-0.1,4.4,0,4.4,0
			c1,0,1.7,0.4,1.8,0.8c0.1,0.3,0.2,1,0.2,1c0.1,0.6,0.4,0.6,0.4,0.6c0.1,0,0.4,0,0.4-0.5c0,0,0.1-1.6,0.1-1.9c0-0.2,0.2-1,0.2-1
			l0.1-0.4c0-0.3-0.2-0.5-0.4-0.5C352.7,262.7,352.1,262.9,351.6,263z M138.5,263h-0.9l-2.6-0.1c-0.2,0-0.7,0-0.7,0.4
			c0,0.2,0.2,0.4,0.4,0.4l0.9,0.1c0.9,0.1,1,0.5,1.1,1.4l0.1,6.2v3.6c0,3.4-0.5,5.5-1.6,6.9c-1,1.2-2.7,2-4.3,2
			c-1.6,0-2.8-0.2-4.2-1.5c-1-1-2.1-2.6-2.1-6.9v-4l0.1-6.2c0.1-1,0.3-1.4,0.9-1.4l0.7-0.1c0.3,0,0.5-0.2,0.5-0.4
			c0-0.4-0.5-0.4-0.7-0.4l-2.1,0.1h-1.3l-2.7-0.1c-0.2,0-0.7,0-0.7,0.4c0,0.2,0.2,0.4,0.5,0.4l0.9,0.1c0.8,0.1,1,0.5,1.1,1.4
			l0.1,6.2v4.2c0,4.6,1.4,6.6,2.6,7.7c1.9,1.8,4.6,2.1,6.1,2.1c1.5,0,3.9-0.2,6.1-2.2c2.4-2.1,2.7-5.8,2.7-8.7v-3.1l0.1-6.2
			c0.1-1,0.3-1.3,0.9-1.4l0.7-0.1c0.3,0,0.5-0.2,0.5-0.4c0-0.4-0.5-0.4-0.7-0.4L138.5,263z M47.4,263.2c0,0.1-0.7,2.8-0.7,3.1
			c0,0.4,0.2,0.5,0.4,0.5c0.3,0,0.4-0.2,0.5-0.4l0.5-0.9c0.4-0.6,1-0.8,2.8-0.8c0,0,3.2,0,4-0.1v11.9c0,2.7,0,5-0.1,6.2
			c-0.1,0.9-0.2,1.3-0.7,1.4c-0.7,0.1-0.8,0.1-0.8,0.1c-0.3,0-0.4,0.2-0.4,0.4c0,0.4,0.5,0.4,0.7,0.4l2.4-0.1h0.8l3.2,0.1
			c0.6,0,0.7-0.3,0.7-0.4c0-0.2-0.1-0.4-0.4-0.4l-1.2-0.1c-0.7-0.1-0.9-0.5-0.9-1.4c-0.1-1.2-0.1-3.5-0.1-6.2v-11.9
			c0.4,0,3.4,0.1,3.4,0.1c2.8,0.1,3.2,0.7,3.3,1.4l0,0.3c0,0.3,0.1,0.7,0.5,0.7c0.1,0,0.4,0,0.4-0.6l0-0.9l0.1-2.2
			c0-0.2,0-0.6-0.4-0.6l-0.4,0.1c-0.4,0.1-1.2,0.2-2.5,0.2H51.4c0,0-2-0.1-2.2-0.1c-0.2,0-0.9-0.2-0.9-0.2l-0.4-0.1h0
			C47.6,262.5,47.5,262.9,47.4,263.2z M215.1,262.8c-0.6,0.1-1.2,0.1-1.2,0.1l-6.6,0l-0.4,0l-2.9-0.1c-0.2,0-0.7,0-0.7,0.4
			c0,0.2,0.2,0.4,0.4,0.4l0.9,0.1c0.8,0.1,1,0.5,1.1,1.4l0.1,6.2v5c0,2.7,0,5-0.1,6.2c-0.1,0.9-0.2,1.3-0.7,1.4
			c-0.1,0-0.8,0.1-0.8,0.1c-0.3,0-0.4,0.2-0.4,0.4c0,0.4,0.5,0.4,0.7,0.4l2.3-0.1l1.6,0l6,0.1c1.1,0,1.5,0,1.8-0.9
			c0.1-0.6,0.4-2.6,0.4-2.8c0-0.2,0-0.6-0.4-0.6c-0.4,0-0.4,0.4-0.5,0.6c-0.2,1.1-0.5,1.6-1.2,1.9c-0.7,0.3-1.9,0.3-2.7,0.3
			c-2.8,0-3-0.4-3.1-2.1v-3.6v-1.3v-2.5c0,0,4.1,0.2,4.1,0.2c1,0.1,1.2,0.5,1.3,0.8c0.1,0.3,0.1,0.9,0.1,0.9c0,0.3,0.2,0.5,0.4,0.5
			c0.4,0,0.4-0.5,0.4-0.8l0.1-1.8l0.2-1.6c0-0.4-0.3-0.5-0.4-0.4c-0.1,0-0.4,0.3-0.6,0.4c-0.5,0.3-0.5,0.3-1.2,0.4l-4.5,0.1l0-8
			c0.3-0.1,3.4,0,3.9,0c1.6,0.2,1.7,0.5,1.9,0.9l0.1,0.9c0,0.5,0.3,0.6,0.5,0.6c0.1,0,0.3-0.1,0.4-0.5l0.1-1.5l0-0.5l0.2-1l0.1-0.4
			c0-0.4-0.2-0.5-0.3-0.5C215.4,262.7,215.4,262.8,215.1,262.8z M259.9,263H259l-2.5-0.1c-0.2,0-0.7,0-0.7,0.5
			c0,0.2,0.1,0.4,0.4,0.4l0.8,0.1c0.4,0.1,0.8,0.4,0.8,1.4l0.1,6.2v5c0,2.7,0,5-0.1,6.2c-0.1,0.9-0.2,1.3-0.7,1.4l-0.8,0.1
			c-0.4,0-0.5,0.2-0.5,0.4c0,0.4,0.5,0.4,0.7,0.4l2.4-0.1h0.8l3.2,0.1c0.6,0,0.7-0.3,0.7-0.4c0-0.2-0.1-0.4-0.4-0.4l-1.2-0.1
			c-0.7-0.1-0.9-0.5-0.9-1.4c-0.1-1.2-0.1-3.5-0.1-6.2v-5l0.1-6.2c0.1-1,0.3-1.3,0.9-1.4l0.7-0.1c0.3,0,0.5-0.2,0.5-0.4
			c0-0.5-0.5-0.5-0.7-0.5L259.9,263z M265.6,263.2c0,0.1-0.7,2.8-0.7,3.1c0,0.4,0.2,0.5,0.4,0.5c0.3,0,0.4-0.2,0.5-0.4l0.5-0.9
			c0.4-0.6,1-0.8,2.8-0.8c0,0,3.2,0,4-0.1v11.9c0,2.7,0,5-0.1,6.2c-0.1,0.9-0.2,1.3-0.7,1.4c-0.7,0.1-0.8,0.1-0.8,0.1
			c-0.3,0-0.4,0.2-0.4,0.4c0,0.4,0.5,0.4,0.7,0.4l2.4-0.1h0.8l3.2,0.1c0.6,0,0.7-0.3,0.7-0.4c0-0.2-0.1-0.4-0.4-0.4l-1.2-0.1
			c-0.7-0.1-0.9-0.5-0.9-1.4c-0.1-1.2-0.1-3.5-0.1-6.2v-11.9c0.4,0,3.4,0.1,3.4,0.1c2.8,0.1,3.2,0.7,3.3,1.4l0,0.3
			c0,0.3,0.1,0.7,0.5,0.7c0.1,0,0.4,0,0.4-0.6l0-0.9l0.1-2.2c0-0.2,0-0.6-0.4-0.6l-0.4,0.1c-0.4,0.1-1.2,0.2-2.5,0.2h-10.8
			c0,0-2-0.1-2.2-0.1c-0.2,0-0.9-0.2-0.9-0.2l-0.4-0.1h0C265.7,262.5,265.6,262.9,265.6,263.2z M240.2,284.6c0,0.4-0.5,0.4-0.9,0.4
			h-1.1c-1.6,0-2.4-0.1-3.2-0.6c-1.2-0.6-2.1-1.9-3.6-3.8c0,0-3.4-4.8-3.6-4.8c0,0-3.7-0.1-3.7,0v0.7c0,2.7,0,5,0.1,6.2
			c0.1,0.9,0.2,1.3,0.9,1.4l1.2,0.1c0.4,0,0.5,0.2,0.5,0.4c0,0.1-0.1,0.4-0.7,0.4l-3.2-0.1c0,0-0.3,0-0.5,0l-2.6,0.1
			c-0.2,0-0.7,0-0.7-0.4c0-0.2,0.1-0.4,0.4-0.4l0.8-0.1c0.4-0.1,0.5-0.6,0.7-1.4c0.1-1.2,0.1-3.5,0.1-6.2v-5l-0.1-6.2
			c-0.1-1-0.3-1.4-1.1-1.4l-0.9-0.1c-0.3,0-0.5-0.2-0.5-0.4c0-0.4,0.5-0.4,0.7-0.4l2.9,0.1l1.3,0l2.4-0.1c1.8,0,3.8,0.1,5.4,1.3
			c0.8,0.6,2.1,2,2.1,4.1c0,2.4-1.1,4.5-3.4,6.6c0.2,0.2,0.6,0.7,0.6,0.7c2,2.6,3.8,4.9,5.3,6.5c1.5,1.5,2.6,1.9,3.4,2l0.1,0
			C240,284.2,240.2,284.4,240.2,284.6z M230.9,269.8c0-3.5-1.8-5.5-4.8-5.5c-0.9,0-1.6,0.1-1.9,0.2c-0.1,0-0.1,0.1-0.1,0.1v9.4
			c0,0.1,0,0.1,0.1,0.2c0.3,0.2,1.5,0.4,2.9,0.4c0.6,0,1.4-0.1,2-0.5C230.3,273.3,230.9,271.7,230.9,269.8z M80.7,320.5
			c0,0-10.8,22.8-11.8,24.8c-0.2-0.4-11.9-24.5-11.9-24.5c-0.5-1.1-0.8-1.4-1.3-1.4c-0.3,0-0.7,0.2-0.9,1.2l-4.3,28.6
			c-0.2,1.6-0.6,3.2-1.7,3.4l-1.3,0.1c-0.3,0-0.8,0-0.8,0.4c0,0.6,0.6,0.6,0.9,0.6l2.7-0.1l1.6-0.1l1.4,0l3.2,0.1
			c0.6,0,1.2,0,1.2-0.6c0-0.3-0.2-0.4-0.8-0.4l-1.8-0.2c-0.8-0.2-1.2-0.6-1.2-1.3l0.1-2c0,0,2-15.3,2.2-17.2
			c0.4,0.6,2.1,4.4,2.1,4.4l2.4,5.2c0.5,1.2,3.9,7.8,5,10l0.1,0.2c0.7,1.2,1.1,2,1.5,2c0.5,0,0.7-0.4,1.7-2.5l9.6-19.9
			c0,0.2,2.6,19.2,2.6,19.2c0.1,0.4,0.1,0.7,0.1,1c0,0.5-0.1,0.8-0.2,0.8c-0.3,0.1-0.6,0.3-0.6,0.6c0,0.4,0.5,0.5,1.4,0.6
			c1.7,0.1,7.8,0.3,8.9,0.3c0.8,0,1.2-0.2,1.2-0.6c0-0.4-0.5-0.4-0.8-0.4c-0.6,0-1.4,0-2.7-0.4c-1.3-0.4-1.7-1.7-2.1-4.3l-4-27.1
			c-0.1-1-0.4-1.5-0.9-1.5C81.3,319.4,81.1,319.8,80.7,320.5z M131.8,320.4l-2.3,0.1l-2.2,0l-3.8-0.1c-0.5,0-1.1,0-1.1,0.5
			c0,0.5,0.4,0.5,0.9,0.5l1.4,0.1c1.4,0.1,1.7,1,1.8,2.4c0.1,1.4,0.1,2.6,0.1,9.3v7.7c0,4,0,7.5-0.2,9.3c-0.2,1.4-0.4,2.2-1.2,2.3
			l-1.6,0.2c-0.4,0-0.8,0-0.8,0.5c0,0.5,0.8,0.5,1,0.5l3-0.1l2.5,0l6.8,0.2l5.9,0.1c2.3,0,2.6-0.2,2.9-1.3c0.4-1.3,0.7-4.6,0.7-5.1
			c0-0.4,0-0.9-0.5-0.9c-0.5,0-0.6,0.5-0.6,0.8c-0.1,0.8-0.6,2-1.1,2.6c-1,1.1-2.6,1.2-5,1.2c-3.5,0-4.5-0.3-5.2-0.9
			c-0.9-0.8-0.9-3.8-0.9-9.3v-7.7c0-6.7,0-7.9,0.1-9.3c0.1-1.6,0.5-2.2,1.5-2.4l1.7-0.1c0.5,0,0.9-0.1,0.9-0.5c0-0.4-0.5-0.5-1-0.5
			L131.8,320.4z M159.7,351.1c1.2,0.5,2.2,0.5,3.2,0.5c0.9,0,5.2-0.3,5.2-5.5c0-1.7-0.4-6-4.2-8.6c-0.9-0.7-1.9-0.9-3.6-1l-1.9,0
			c-0.1,0-0.1,0-0.1,0.2V347C158.3,349.9,158.4,350.6,159.7,351.1z M160,322.4l-1.4,0.1c-0.2,0.1-0.3,0.2-0.3,0.6v10.8
			c0,0.3,0.1,0.4,0.2,0.4l2,0.1c1.3,0,2.3-0.1,3.1-0.8c1.1-0.9,1.8-2.5,1.8-4.6C165.4,326.5,163.9,322.4,160,322.4z M160.8,320.3
			c8.8,0,9.4,5.1,9.4,6.7c0,3.4-1.8,5.5-4.4,7.6c3.8,1.4,7.9,4.5,7.9,9.5c0,4.8-3.6,9.7-11.8,9.7l-1.4-0.1l-1.7-0.1l-3.3-0.1l-2.5,0
			l-3,0.1c-0.2,0-1,0-1-0.5c0-0.4,0.4-0.4,0.8-0.5l1.6-0.2c0.8-0.2,1-1.1,1.2-2.3c0.2-1.8,0.2-5.3,0.2-9.3v-7.7c0-6.7,0-7.9-0.1-9.3
			c-0.1-1.4-0.2-2.2-1.8-2.4l-1.7-0.1c-0.5,0-0.9,0-0.9-0.5c0-0.5,0.6-0.5,1.1-0.5l4.3,0.1l1.7,0l3.2-0.1L160.8,320.3z M184.5,335.7
			c0,9.6,5.5,16.2,13.4,16.2c3,0,10.1-1.4,10.1-14.1c0-9.3-5.2-15.8-12.7-15.8C191.1,322,184.5,323.8,184.5,335.7z M178.2,337
			c0-8.3,5.7-17.3,18.2-17.3c11,0,17.8,6.3,17.8,16.5c0,10.6-7.5,18.1-18.2,18.1C183.8,354.3,178.2,345.4,178.2,337z M246.8,320.4
			l-6.3-0.1c-0.5,0-1,0-1,0.5c0,0.5,1.4,0.5,2.4,0.6c1.2,0.1,1.7,1,1.8,2.4c0.1,1.4,0.1,2.6,0.1,9.3v5.5c0,4.7-0.2,8.5-2.5,10.8
			c-2.1,2.1-4.9,2.3-6,2.3c-1.5,0-3.5-0.2-5.4-1.8c-1.8-1.4-3.4-3.7-3.4-10.7v-6.1c0-6.7,0-7.9,0.1-9.3c0.1-1.6,0.5-2.2,1.5-2.4
			l1.2-0.1c0.4,0,0.8,0,0.8-0.5c0-0.5-0.6-0.5-1.1-0.5l-3.2,0.1l-2.2,0.1l-2.3-0.1l-4.1-0.1c-0.5,0-1.1,0-1.1,0.5
			c0,0.5,0.5,0.5,0.9,0.5c0,0,0.4,0,1.7,0.1c1.3,0.1,1.7,1,1.8,2.4c0.1,1.4,0.1,2.6,0.1,9.3v6.4c0,5.6,1.2,9.3,3.9,11.7
			c3.4,3.1,7.9,3.1,9.8,3.1c2.6,0,5.9-0.4,9.2-3.2c3.7-3.2,4.2-8.2,4.2-13.3v-4.7c0-6.7,0-7.9,0.1-9.3c0.1-1.6,0.5-2.2,1.5-2.4
			l1.2-0.1c0.5,0,0.9-0.1,0.9-0.5c0-0.5-0.5-0.5-1-0.5L246.8,320.4z M265.1,337.3c0.8,0.3,2,0.4,3.3,0.4c1.8,0,2.3-0.2,3-0.7
			c1-0.7,2.5-2.5,2.5-6.5c0-6.2-4.1-7.9-6.6-7.9c-1.2,0-1.9,0.1-2.3,0.2c-0.2,0.1-0.3,0.2-0.3,0.5v13.3
			C264.8,337.1,264.9,337.2,265.1,337.3z M268.2,320.4c2.6,0,5.7,0.2,8.1,1.9c1,0.7,3,2.9,3,6.1c0,3.6-1.7,6.5-5.8,9.8
			c0.1,0.1,1.5,1.9,1.5,1.9c3.2,4,5.8,7.2,8,9.6c2.4,2.5,4.1,2.8,4.8,3l0.1,0c0.5,0.1,0.6,0.4,0.6,0.6c0,0.5-0.6,0.5-0.9,0.5h-3
			c-2.4,0-3.6-0.2-4.8-0.9c-1.9-1-3.5-3-6-6.5l-2.2-3.1l-2.1-2.9c-0.2-0.2-0.4-0.3-0.7-0.3L265,340c-0.2,0-0.2,0.1-0.2,0.2v0.6
			c0,4,0,7.5,0.2,9.4c0.1,1.4,0.4,2.2,1.6,2.3l2.1,0.2c0.6,0,0.6,0.3,0.6,0.5c0,0.5-0.8,0.5-1,0.5l-5-0.1l-1.4,0l-1.8,0l-3.6,0.1
			c-0.2,0-1,0-1-0.5c0-0.4,0.4-0.4,0.8-0.5l1.6-0.2c0.8-0.2,1-1.1,1.2-2.3c0.2-1.8,0.2-5.3,0.2-9.3v-7.7c0-6.7,0-7.9-0.1-9.3
			s-0.4-2.2-1.8-2.4l-1.7-0.1c-0.3,0-0.9,0-0.9-0.5c0-0.5,0.6-0.5,1.1-0.5l4.3,0.1l1.8,0l3.2-0.1L268.2,320.4z M295.6,321.2l-0.4,26
			c0,3.8-0.2,5-1.3,5.3c-0.6,0.2-1.2,0.2-1.6,0.2c-0.2,0-0.8,0-0.8,0.5c0,0.5,0.6,0.5,1.1,0.5l3.7-0.1h2l3.9,0.1
			c0.4,0,1.1,0,1.1-0.5c0-0.5-0.6-0.5-0.9-0.5c-0.6,0-1.2,0-2-0.3c-0.9-0.3-1.4-1.8-1.5-4.8c0,0-0.5-17.8-0.5-18.2
			c0.2,0.2,0.9,0.9,0.9,0.9c1.9,2,5.7,6.2,9.5,10l5.8,5.8l7.1,7.1c0.5,0.5,1,1,1.6,1c0.6,0,0.7-0.7,0.7-1.5l0.5-27.7
			c0-2.5,0.1-3.4,1.2-3.6l1.3-0.1c0.7,0,0.9-0.2,0.9-0.5c0-0.5-0.7-0.5-1.1-0.5l-3.2,0.1l-0.8,0l-1.5,0l-3.5-0.1
			c-0.5,0-1.2,0-1.2,0.5c0,0.4,0.4,0.5,0.8,0.5c0.6,0,1.4,0,2,0.2c0.9,0.4,1.4,1.1,1.4,3.9c0,0,0.4,18.5,0.4,19.7l-0.1-0.1
			c0,0-3.1-3.2-3.1-3.2l-6.5-6.7c-6.7-6.6-13.5-14-13.6-14.1l-0.4-0.4c-0.5-0.6-0.9-0.9-1.3-0.9
			C295.7,319.6,295.6,320.5,295.6,321.2z M349.4,320.4c-0.6,0-7.9,0-10.9,0l-2.2-0.1l-0.5,0l-3.6,0c-0.5,0-1.1,0-1.1,0.5
			c0,0.5,0.5,0.5,0.9,0.5l1.7,0.1c1.5,0.2,1.7,1,1.8,2.4c0.1,1.4,0.1,2.6,0.1,9.3v7.7c0,4,0,7.5-0.2,9.3c-0.2,1.2-0.4,2.1-1.2,2.3
			l-1.6,0.2c-0.5,0-0.8,0-0.8,0.5c0,0.5,0.7,0.5,1,0.5l3-0.1l2.5,0l4.6,0.1l1.3,0l6.3,0.1c1.6,0,2.1,0,2.5-1.2
			c0.2-0.9,0.6-3.9,0.6-4.9c0-0.4,0-0.9-0.5-0.9c-0.4,0-0.5,0.3-0.6,0.8c-0.3,1.8-0.8,2.7-1.9,3.2c-1.1,0.5-3,0.5-4.1,0.5
			c-4.5,0-5.1-0.7-5.1-3.6v-5v-1.8v-3.5c0-0.3,0.1-0.3,0.1-0.3c1,0,5.4,0,6.2,0.1c1.4,0.1,2.1,0.6,2.4,1.6l0.1,1.2l0,0.4
			c0,0.3,0.2,0.5,0.5,0.5c0.5,0,0.5-0.6,0.5-0.9l0.1-1.4l0.1-1.5l0.3-2.7l0.1-0.5c0-0.3-0.1-0.5-0.4-0.5c-0.2,0-0.4,0.2-0.7,0.5
			c-0.4,0.5-1.1,0.6-2.1,0.7c-0.6,0.1-3.1,0.1-7,0.1c-0.1,0-0.2,0-0.2-0.4v-11.1c0-0.3,0.1-0.3,0.2-0.3c0.9,0,5.5,0.1,6.2,0.2
			c2.2,0.3,2.6,0.8,2.9,1.5c0.2,0.6,0.2,1.4,0.2,1.5c0,0.2,0,0.7,0.5,0.7c0.4,0,0.5-0.4,0.5-0.6l0.2-2l0.1-0.9l0.3-2.4l0.1-0.4
			c0-0.4-0.1-0.5-0.4-0.5C351.6,320,350.2,320.4,349.4,320.4z M113.6,320.4c-0.6,0-7.9,0-10.9,0l-2.2-0.1l-0.5,0l-3.6,0
			c-0.5,0-1.1,0-1.1,0.5c0,0.5,0.5,0.5,0.9,0.5l1.7,0.1c1.5,0.2,1.7,1,1.8,2.4c0.1,1.4,0.1,2.6,0.1,9.3v7.7c0,4,0,7.5-0.2,9.3
			c-0.2,1.2-0.4,2.1-1.2,2.3l-1.6,0.2c-0.5,0-0.8,0-0.8,0.5c0,0.5,0.7,0.5,1,0.5l3-0.1l2.5,0l4.6,0.1l1.3,0l6.3,0.1
			c1.6,0,2.1,0,2.5-1.2c0.2-0.9,0.6-3.9,0.6-4.9c0-0.4,0-0.9-0.5-0.9c-0.4,0-0.5,0.3-0.6,0.8c-0.3,1.8-0.8,2.7-1.9,3.2
			c-1.1,0.5-3,0.5-4.1,0.5c-4.5,0-5.1-0.7-5.1-3.6v-5v-1.8v-3.5c0-0.3,0.1-0.3,0.1-0.3c1,0,5.4,0,6.2,0.1c1.4,0.1,2.1,0.6,2.4,1.6
			l0.1,1.2l0,0.4c0,0.3,0.2,0.5,0.5,0.5c0.5,0,0.5-0.6,0.5-0.9l0.1-1.4l0.1-1.5l0.3-2.7l0.1-0.5c0-0.3-0.1-0.5-0.4-0.5
			c-0.2,0-0.4,0.2-0.7,0.5c-0.4,0.5-1.1,0.6-2.1,0.7c-0.6,0.1-3.1,0.1-7,0.1c-0.1,0-0.2,0-0.2-0.4v-11.1c0-0.3,0.1-0.3,0.2-0.3
			c0.9,0,5.5,0.1,6.2,0.2c2.2,0.3,2.6,0.8,2.9,1.5c0.2,0.6,0.2,1.4,0.2,1.5c0,0.2,0,0.7,0.5,0.7c0.4,0,0.5-0.4,0.5-0.6l0.2-2
			l0.1-0.9l0.3-2.4l0.1-0.4c0-0.4-0.1-0.5-0.4-0.5C115.9,320,114.5,320.4,113.6,320.4z"/>
	</g>
</g>
</svg>
